<svg xmlns="http://www.w3.org/2000/svg" width="540" height="71"><g fill="#fafafa"><g data-name="logo_index"><path data-name="前面オブジェクトで型抜き 1" d="M8.681 71a2.637 2.637 0 00-1.526-.391c-.208 0-.417.011-.62.021s-.408.021-.605.021A1.956 1.956 0 013.854 69.3a6.646 6.646 0 00.248-2.19h-1.98v-6.452c-.484-.068-.347-1.5-.2-3.006A13.433 13.433 0 002 54.331a.425.425 0 00.123-.244v-7.3a20.326 20.326 0 01-1.113-3.893 1.967 1.967 0 00.247-1.46 31.577 31.577 0 00-.139-3.7 23.954 23.954 0 01.016-5.543 3.077 3.077 0 01-.385-1.734 2.584 2.584 0 00-.481-1.794 7.5 7.5 0 01.122-4.384l-.247-.366a14.1 14.1 0 01.349-2.648 10.116 10.116 0 00.27-3.678A10.312 10.312 0 012 13.572v-3.041l-.124-.122a1.215 1.215 0 00-.357-1.025 3.988 3.988 0 01-.137-.192 4.3 4.3 0 00.351-2.323C1.7 5.671 1.662 4.54 2.988 3.96a7.6 7.6 0 001.967.253 15.035 15.035 0 005.952-1.591.544.544 0 01-.02-.529c.127-.194.453-.284 1.025-.284a17.6 17.6 0 011.784.142l.08.009a19.394 19.394 0 001.988.151 3.862 3.862 0 00.958-.1 1.993 1.993 0 001.264.407 5.777 5.777 0 001.055-.131h.023a5.431 5.431 0 01.991-.127 1.577 1.577 0 011.368.708 17.042 17.042 0 002.906-.912 17.02 17.02 0 012.91-.913 1.391 1.391 0 00.992.41A1.556 1.556 0 0028.6 1.4c.186.008.379.012.576.012.931 0 1.868-.089 2.774-.175h.027c.917-.087 1.864-.177 2.814-.177a11.562 11.562 0 012.346.222 2.346 2.346 0 011.595-.44A1.993 1.993 0 0040.357.31 4.7 4.7 0 0142.086 0a6.156 6.156 0 012.23.432l.371-.244a10.876 10.876 0 012.4.38 9.989 9.989 0 002.178.353A2.75 2.75 0 0050.132.8a7.567 7.567 0 013.808 1.275c.332.186.676.378 1.019.547l.247-.244a.82.82 0 00.2.024 1.4 1.4 0 00.918-.511 2.635 2.635 0 001.525.391c.208 0 .417-.011.62-.021h.005c.2-.01.4-.021.6-.021a1.957 1.957 0 012.071 1.36 3.328 3.328 0 01-.062.547 3.327 3.327 0 00-.062.547 1.777 1.777 0 01.742 1.1 5.326 5.326 0 01-.4 1.8l-.094.272a24.264 24.264 0 001.238 4.258.6.6 0 01.284-.093.265.265 0 01.2.091c.307.338.186 1.589.058 2.914A12.045 12.045 0 0063 18.438a3.428 3.428 0 00-.254 2.555c.15.953.292 1.852-.488 2.556a23.754 23.754 0 00.867 3.227A23.79 23.79 0 0163.991 30a1.879 1.879 0 00-.248 1.46 31.649 31.649 0 00.139 3.7 23.986 23.986 0 01-.015 5.544 3.077 3.077 0 01.385 1.734 2.584 2.584 0 00.481 1.794 7.508 7.508 0 01-.123 4.38l.247.365a14.1 14.1 0 01-.349 2.648 10.12 10.12 0 00-.27 3.679 8.775 8.775 0 01-1.015 3.766c-.158.356-.322.724-.469 1.1v.121a4.028 4.028 0 00-.32 2.247 3.061 3.061 0 01-.67 2.62 3.725 3.725 0 01-1.98 2.677 9.44 9.44 0 01-1.98-.608h-4.33c-.062.212-.354.312-.919.312a16.984 16.984 0 01-1.74-.144l-.1-.011a18.765 18.765 0 00-2.01-.154 3.7 3.7 0 00-1.048.119.163.163 0 01-.124-.061.163.163 0 00-.124-.061H40.6c-.331.108-.67.23-1 .348a16.814 16.814 0 01-2.468.746 1.388 1.388 0 00-.992-.41 1.552 1.552 0 00-.369.045 13.84 13.84 0 00-.585-.012c-.929 0-1.864.089-2.768.174h-.028c-.914.088-1.859.178-2.816.178a11.6 11.6 0 01-2.342-.221 2.346 2.346 0 01-1.594.439 2 2 0 00-1.623.534 4.7 4.7 0 01-1.728.31 6.158 6.158 0 01-2.231-.432l-.371.244a13.658 13.658 0 01-2.19-.4 11.685 11.685 0 00-2.623-.416 4.506 4.506 0 00-.878.081.427.427 0 01-.062.182.429.429 0 00-.062.183 2.723 2.723 0 01-2.029.8 2.441 2.441 0 00-2.054.9.82.82 0 00-.2-.024 1.4 1.4 0 00-.906.524zm24.191-16.78l11.444 8.244a44.022 44.022 0 014.207-17.443c2.451-4.777 5.681-8.993 9.776-13.854A38.533 38.533 0 0047.374 36.7a17.022 17.022 0 00-13.2-25.871l-1.241-4.082L31.7 10.83a17.022 17.022 0 00-13.156 25.954 36.96 36.96 0 00-11.1-5.617c4.075 4.995 7.381 9.187 9.775 13.854a35.291 35.291 0 012.939 8.072 53.049 53.049 0 011.269 9.371l11.445-8.244zm0-.188a38.972 38.972 0 00-6.939-10.695 16.925 16.925 0 007 1.512 16.707 16.707 0 006.8-1.432 38.937 38.937 0 00-6.86 10.613zm.061-11.287a10.889 10.889 0 01-7.78-3.247 11.179 11.179 0 010-15.726 10.89 10.89 0 0115.56-.046 11.179 11.179 0 010 15.726 10.861 10.861 0 01-7.78 3.293z"/><g data-name="グループ 15"><g data-name="グループ 12"><path data-name="パス 5" d="M249.117 61.951a8.6 8.6 0 01-.375-1l-.125-1.873V47.594l.125-1.873c.125-.5.125-.749.375-1a1.279 1.279 0 01.749-.624v-.123h-5.368v.125a1.279 1.279 0 01.749.624 8.612 8.612 0 01.375 1l.125 1.873V59.08l-.125 1.873a8.613 8.613 0 01-.375 1 1.835 1.835 0 01-.749.624v.125h5.368v-.128a3.31 3.31 0 01-.749-.623z"/><path data-name="パス 6" d="M259.854 61.452l-1-.874-.874-.874-1.748-2.247-3.99-5.368c.125 0 6.617-8.364 6.617-8.364l.125-.125h-5.493l.25.125c.5.375.874.749.874 1.124a2.493 2.493 0 01-.374 1l-1 1.5-3.999 5.24.749.874 2.372 3.371 3 3.87a3.767 3.767 0 001.623 1.373 4.169 4.169 0 001.873.375l3-.125-.125-.125z"/><path data-name="パス 7" d="M285.571 61.202a15.117 15.117 0 01-1.248-2.5l-5.993-14.978h-4.619v.125c.5.25.874.624.874 1a3.308 3.308 0 01-.375 1.248l-4.994 12.609a17.945 17.945 0 01-1.124 2.5 3.088 3.088 0 01-1.5 1.248l-.25.125h5.743l-1-.749a.953.953 0 01-.25-.624 9.222 9.222 0 01.25-1.5l1.623-4.369h7.116c0 .125 1.623 4.369 1.623 4.369a5.014 5.014 0 01.5 1.623l-.125.5-1 .749h6.492l-.25-.125a3.67 3.67 0 01-1.493-1.251zm-6.492-7.615h-5.618c.125-.125 2.747-6.866 2.871-7.241.125.378 2.747 7.116 2.747 7.241z"/><path data-name="パス 8" d="M298.555 61.951a8.592 8.592 0 01-.374-1l-.125-1.873V47.594l.125-1.873c.125-.5.125-.749.374-1a1.279 1.279 0 01.749-.624v-.123h-5.368v.125a1.279 1.279 0 01.749.624 8.623 8.623 0 01.375 1l.125 1.873V59.08l-.125 1.873c-.125.375-.125.749-.375 1a1.835 1.835 0 01-.749.621v.125h5.368v-.125a1.278 1.278 0 01-.749-.623z"/><path data-name="パス 9" d="M309.292 61.452l-1-.874-.874-.874-1.748-2.247-3.99-5.368c.125 0 6.617-8.364 6.617-8.364l.125-.125h-5.493l.25.125c.5.375.874.749.874 1.124a2.493 2.493 0 01-.375 1l-1 1.5-3.998 5.24.749.874 2.372 3.371 3 3.87a3.767 3.767 0 001.623 1.373 4.169 4.169 0 001.873.375l3-.125-.125-.125z"/><path data-name="パス 10" d="M333.882 61.951a8.59 8.59 0 01-.375-1l-.125-1.873V47.594l.125-1.873a8.6 8.6 0 01.375-1 1.834 1.834 0 01.749-.624l.25-.125h-5.989l.25.125a1.279 1.279 0 01.749.624 8.591 8.591 0 01.375 1l.125 1.873v9.363l-.125 1.373-.5.874a3.922 3.922 0 01-1.748 1.373 5.066 5.066 0 01-2.372.5 5.175 5.175 0 01-2-.375 4.751 4.751 0 01-1.623-1.124 4.22 4.22 0 01-.749-1.5 8.962 8.962 0 01-.25-2.122v-8.362l.125-1.873a4.229 4.229 0 01.375-1 1.279 1.279 0 01.749-.624l.25-.125h-5.741v.125a1.279 1.279 0 01.749.624 8.59 8.59 0 01.375 1l.125 1.873v10.237l.25 1.248.375 1a5.436 5.436 0 002.372 2.372 7.071 7.071 0 003.62.874 6.926 6.926 0 005.618-2.372v1.873h4.37l-.25-.125c-.126-.25-.376-.5-.504-.75z"/><path data-name="パス 11" d="M355.858 60.078a10.925 10.925 0 01-3 .375c-1.623 0-3.62-.125-5.868-.25.125-.25 10.487-16.479 10.487-16.479h-12.73c-.125 0-1.5 3.246-1.5 3.246l-.125.25.25-.125a10 10 0 012.122-1 10.928 10.928 0 012.5-.25 44.061 44.061 0 014.494.25c-.125.25-10.487 16.479-10.487 16.479h15.231c.125 0 1.623-3.62 1.623-3.62l.125-.25-.125.125a10.973 10.973 0 01-2.997 1.249z"/><path data-name="パス 12" d="M383.822 61.202a15.115 15.115 0 01-1.248-2.5l-5.993-14.978h-4.619v.125c.5.25.874.624.874 1a3.309 3.309 0 01-.375 1.248l-4.994 12.609a17.969 17.969 0 01-1.124 2.5 3.089 3.089 0 01-1.5 1.248l-.25.125h5.743l-1-.749a.954.954 0 01-.25-.624 4.316 4.316 0 01.375-1.5l1.623-4.369h7.116c0 .125 1.623 4.369 1.623 4.369a5.015 5.015 0 01.5 1.623l-.125.5-1 .749h6.498l-.25-.125a3.35 3.35 0 01-1.624-1.251zm-6.492-7.615h-5.618c.125-.125 2.747-6.866 2.871-7.241.125.378 2.747 7.116 2.747 7.241z"/><path data-name="パス 13" d="M405.794 43.724h-.25l.25.125a2.131 2.131 0 011.124 1.248 4.605 4.605 0 01.25 2.122v10.987c-.25-.375-10.487-13.358-10.487-13.358l-.624-1h-4.494l1 .874a2.511 2.511 0 01.5 1l.125 1.5v12.11l-.125 1.5a2.511 2.511 0 01-.5 1l-1.124.874h5.368l-.874-.749-.375-.624-.25-.874-.125-1.124V48.093c.25.25 9.863 12.484 9.863 12.484a8.826 8.826 0 001.873 1.873 6.94 6.94 0 002.118 1.124h.125v-16.35l.125-1.5a2.511 2.511 0 01.5-1l1.124-.874h-5.119z"/><path data-name="パス 14" d="M449.112 61.951a8.6 8.6 0 01-.375-1l-.125-1.873V47.594a10.925 10.925 0 01.25-2.5 1.772 1.772 0 011-1.124l.25-.125h-5.868l.25.125a1.279 1.279 0 01.749.624 8.579 8.579 0 01.375 1l.125 1.873v3.87l-10.237-.125.125-3.87.125-1.873c.125-.5.125-.749.375-1a1.278 1.278 0 01.749-.624v-.121h-5.368v.125a1.279 1.279 0 01.749.624 8.6 8.6 0 01.374 1l.125 1.873V58.83l-.125 1.873c-.125.375-.125.749-.374 1a1.835 1.835 0 01-.749.624v.125h5.368v-.128a1.279 1.279 0 01-.749-.624 8.59 8.59 0 01-.375-1l-.125-1.873v-5.24s9.987.125 10.112.125v5.368l-.125 1.873a4.223 4.223 0 01-.375 1 1.278 1.278 0 01-.749.624l-.25.125h5.992l-.25-.125c-.374-.253-.746-.376-.874-.626z"/><path data-name="パス 15" d="M475.956 46.096a15.6 15.6 0 00-2.122-1.5 8.191 8.191 0 00-2.622-1 9.736 9.736 0 00-2.747-.375 13.147 13.147 0 00-5.493 1.248 9.855 9.855 0 00-3.87 3.62 9.015 9.015 0 00-1.373 5.119 10.008 10.008 0 001.373 4.994 10.413 10.413 0 003.745 3.62 10.836 10.836 0 005.243 1.248 11.435 11.435 0 005.368-1.373 10.776 10.776 0 003.87-3.62 9.015 9.015 0 001.373-5.119 10.654 10.654 0 00-.749-3.87 7.9 7.9 0 00-1.996-2.992zm-7.615 14.856a6.351 6.351 0 01-2.747-.5 8.462 8.462 0 01-2.247-1.623 8.862 8.862 0 01-1.248-1.748 6.147 6.147 0 01-.749-2.122 13.905 13.905 0 01-.25-2.122 8.394 8.394 0 01.5-3 8.482 8.482 0 011.373-2.372 6.445 6.445 0 012.372-1.5 7.406 7.406 0 012.871-.624 6.872 6.872 0 015.368 2.5 8.959 8.959 0 011.873 5.618 7.555 7.555 0 01-.5 3 7.677 7.677 0 01-1.5 2.372 7.083 7.083 0 01-2.247 1.5 5.69 5.69 0 01-2.869.622z"/><path data-name="パス 16" d="M499.177 43.725h-11.86a3.854 3.854 0 01-1.373-.25c-.125 0-1.124 3.5-1.124 3.5l-.125.25.125-.125a7.019 7.019 0 011.623-.874 8.964 8.964 0 012.122-.25l2.247.125-.125 12.859-.125 1.873a4.223 4.223 0 01-.375 1 1.278 1.278 0 01-.749.624v.118h5.868l-1.124-.874a2.509 2.509 0 01-.5-1l-.125-1.5V45.975l.375.125 2-.125a5.787 5.787 0 011.748.25 1.493 1.493 0 01.874.874l.125.125 1-3.745h-.125z"/><path data-name="パス 17" d="M517.153 60.079a11.24 11.24 0 01-3.121.375c-1.124 0-2.247-.125-3.5-.25v-6.617h2.5a3.882 3.882 0 011.373.125 1.664 1.664 0 01.749.624l.125.125v-3.37h-.125a2.125 2.125 0 01-.874.125h-3.87l.125-5.243a18.523 18.523 0 012.871-.125 8.964 8.964 0 012.122.25 3.232 3.232 0 011.373.874l.125.125V43.6h-.125l-1 .125h-9.734l.25.125a1.278 1.278 0 01.749.624 8.58 8.58 0 01.375 1l.125 1.873v11.484l-.125 1.873a4.226 4.226 0 01-.375 1 1.835 1.835 0 01-.749.624v.125h11.86c.125 0 1.373-3.745 1.373-3.745l.125-.25-.25.125a4.51 4.51 0 01-2.372 1.496z"/><path data-name="パス 18" d="M539.75 58.83a10.091 10.091 0 01-2.5 1.373 8.3 8.3 0 01-2.622.375c-1.248 0-2.5-.125-3.87-.25l.125-12.734.125-1.873a1.229 1.229 0 01.375-1 1.278 1.278 0 01.749-.624v-.123h-5.366v.125a1.278 1.278 0 01.749.624 8.59 8.59 0 01.375 1l.125 1.873V59.08l-.125 1.873c-.125.375-.125.749-.375 1a1.835 1.835 0 01-.749.624v.125h11.61s1.5-3.87 1.373-3.87l.25-.125z"/></g><g data-name="グループ 13"><path data-name="パス 19" d="M100.056 46.471H89.944l-1.373-.125-.125.125-1.124 3.5 1.748-1 1.752-.125s1.5.125 1.748.125v10.983l-.125 1.623-.25.874-1.124.874h5.992l-1.248-1-.375-.749-.125-1.248V49.093h.25l1.748-.125 1.5.125a1.5 1.5 0 01.624.624l.25.5 1-3.87-.375.125c.243-.126-.256-.001-.256-.001z"/><path data-name="パス 20" d="M116.535 55.334l-1.248-.874-2.372-1.124-2.247-1.124-1-.874-.25-1a1.63 1.63 0 01.874-1.5 3.992 3.992 0 012.247-.624 5.175 5.175 0 012 .375 5.236 5.236 0 011.748 1.124l.375.375v-3.492h-.125a13.733 13.733 0 00-3.87-.5 9.567 9.567 0 00-3.371.5 4.4 4.4 0 00-2.247 1.623 4.218 4.218 0 00-.749 2.5 3.844 3.844 0 00.375 1.623 5.543 5.543 0 001 1.373l1.248 1 2.122 1 2.122 1 1 .624a2.2 2.2 0 01.749 1.623 2.014 2.014 0 01-.375 1.124 3.186 3.186 0 01-1.248.874 3.987 3.987 0 01-1.748.375 8.434 8.434 0 01-5.243-1.873l-.5-.375.874 3.745 2.372.624 2.247.125a7.6 7.6 0 005.368-1.873 4.751 4.751 0 001.124-1.623 5.009 5.009 0 00.375-1.873 3.844 3.844 0 00-.375-1.623z"/><path data-name="パス 21" d="M139.131 62.201l-.25-.874-.125-1.623v-9.987l.125-1.623.25-.749 1.124-.874h-5.743l1.124.874.25.874.125 1.623v7.99l-.125 1.124-.375.749a3.9 3.9 0 01-1.373 1.124 5.234 5.234 0 01-2 .5 3.456 3.456 0 01-1.623-.375 2.493 2.493 0 01-1.248-1l-.624-1.124-.125-1.873v-7.115l.125-1.623.25-.874 1.124-.874h-5.742l.5.375.624.5.25.874.125 1.623v8.738l.125 1.124.375 1a4.973 4.973 0 002.122 2.122 6.911 6.911 0 003.246.749 6.284 6.284 0 004.619-1.873v1.5h4.245l-.5-.375z"/><path data-name="パス 22" d="M160.729 46.471h-5.243l.5.375.5.5.25.5a2.874 2.874 0 01-.375 1.124s-2.622 3.995-2.871 4.494c-.375-.5-3.5-5.743-3.5-5.743l-.749-1-.874-.25h-.5l-3.121.125 1.623 1.124 1 1.373 4.245 6.866v3.87l-.125 1.623-.25.749-1 1h5.743l-1.124-1.124-.375-.749-.125-1.248v-4.12c.129-.126 6.371-9.489 6.371-9.489z"/><path data-name="パス 23" d="M180.204 61.702l-1-2.122-5.242-13.109h-3.995l-.125.375c.375.25.624.5.624.749l-.25 1-4.369 10.861-1 2.122a3.743 3.743 0 01-1.248 1.124l-.624.375h5.868l-1.248-.874-.125-.5.25-1.248s1.124-3 1.373-3.62h5.992c.125.25 1.373 3.62 1.373 3.62l.375 1.248-.125.375-1.248.874h6.492l-.624-.375a1.992 1.992 0 01-1.124-.875zm-5.992-6.741h-4.369c.25-.5 1.873-4.869 2.247-5.618.249.873 1.997 5.243 2.122 5.617z"/><path data-name="パス 24" d="M208.044 61.826l-.375-1.748-1.5-10.861-.125-.874a1.461 1.461 0 01.624-1.373l-.125-.375h-4.491l-.125.874-.375 1s-3 7.74-3.745 9.738c-.375-.874-4.494-10.612-4.494-10.612l-.25-.874h-4.991l1 1 .125.624-.125 1.25-1.373 10.362-.375 1.873a2.854 2.854 0 01-.874 1.248l-.375.375h5.119l-1-.874-.25-.375-.125-.624.125-1.248s1.124-8.739 1.373-10.112c.5 1.248 4.494 10.736 4.494 10.736l.5 1 .375.624.5.5 1 .874s4.744-12.235 5.368-13.608c.125 1.373 1.248 9.738 1.248 9.738l.125 1.373-.25 1.124c-.125.25-.375.375-.749.624l.125.375h5.368l-.5-.375a14.381 14.381 0 00-.877-1.379z"/><path data-name="パス 25" d="M232.015 62.825a5.623 5.623 0 01-1.248-1.124l-1-2.122-5.243-13.108h-3.995l-.125.375c.375.25.624.5.624.749l-.25 1-4.37 10.861-1 2.122a3.743 3.743 0 01-1.248 1.124l-.624.375h5.868l-1.248-.874-.125-.5.25-1.248s1.124-3 1.373-3.62h5.992c.125.25 1.373 3.62 1.373 3.62l.375 1.248-.125.375-1.248.874h6.492zm-7.116-7.865h-4.369c.125-.5 1.873-4.869 2.247-5.618.249.874 1.997 5.244 2.122 5.618z"/></g><g data-name="グループ 14"><path data-name="パス 26" d="M91.816 17.922l.25.125v-2.123h-.125a21.144 21.144 0 00-4.244-1.373h-.25v2h.125a18.677 18.677 0 014.244 1.371z"/><path data-name="パス 27" d="M91.816 13.802l.25.125v-2.123h-.125a21.09 21.09 0 00-4.244-1.248h-.25v1.873h.125a18.678 18.678 0 014.244 1.373z"/><path data-name="パス 28" d="M92.066 18.92h-1.873v.25a7.245 7.245 0 01-2.622 5.868h-.124v2.372l.25-.125a9.079 9.079 0 004.245-8.115z"/><path data-name="パス 29" d="M103.801 13.552c0-1.623-.874-2.5-2.622-2.5h-2.247V9.807h-2v1.248h-4.619l.25 1.748h4.494v1.248h-4.866l.25 1.873h4.744v1.248h-4.619l.125 1.748h4.494v1.248h-4.869l.25 1.873h4.619v1.373h-5.244l.25 1.873h4.994v2.372h1.873v-2.372h5.618v-1.872h-5.618v-1.373h5.243v-1.873h-5.243V18.92h4.994v-3.121h.749v-1.872h-.749c-.251 0-.251-.375-.251-.375zm-1.873 2.372v1.248h-3.121v-1.248zm-1-3.121c.749 0 1 .25 1 .874v.375h-3.121v-1.245z"/><path data-name="パス 30" d="M134.388 24.289c0 .5-.25.749-.624.749h-4.37V9.807h-2v15.231H122.4V10.556h-2v14.482h-.369l.375 2h13.857c1.373 0 2.122-.749 2.122-2.247v-14.11h-2z"/><path data-name="パス 31" d="M158.357 23.789h2v-1.747h-2v-1.374h2V18.92h-2v-1.5h2.247v-1.745h-2.122c0-.25.125-1 .125-1h-1.748s-.125.749-.125 1h-1.119a9.016 9.016 0 001.748-3.246h1.373a.331.331 0 01.375.375v2.122h1.748v-2.248a1.747 1.747 0 00-1.873-2h-1.124a7.039 7.039 0 01.125-.874h-1.873v.125a4.415 4.415 0 00-.125.749h-3.5v4.12h1.248a7.838 7.838 0 01-1.5 1.373h-.122v2.122a7.392 7.392 0 01.749-.5v7.116h-.375l.375 1.748h7.491v-1.744h-2.122c.124 0 .124-.874.124-1.124zm-3-11.236a6.331 6.331 0 01-1.124 2v-2zm1.248 11.236v1.5h-1.873v-1.5zm0-3.121v1.373h-1.873v-1.373zm-1.873-1.748v-1.5h1.873v1.5z"/><path data-name="パス 32" d="M160.855 22.166v.25a12.563 12.563 0 01-.375 3.371v2.372l.375-.375a8.5 8.5 0 001.373-5.243v-.25h-1.373z"/><path data-name="パス 33" d="M162.729 16.923h1.873c1.623 0 1.748.375 1.748.375v.25h2.372v-4.745a1.876 1.876 0 00-2-2.122h-1.373a4.908 4.908 0 00.25-.749h-2a2.589 2.589 0 01-.25.749h-2.247v9.488h-.373l.25 1.623h5.868c.25 0 .624.125.624.874v2.871h-1.623l.25 1.623h3.121v-4.744c0-1.5-.749-2.247-2.122-2.247h-4.245v-.5h6.492v-1.622h-6.492a3.457 3.457 0 01-.123-1.124zm0-1.124v-.874h4.245v.874zm0-2.622v-1h3.371c.749 0 .749.375.749.624v.375z"/><path data-name="パス 34" d="M163.477 22.166h-1l.125 5.119h1.375l-.25-5.119z"/><path data-name="パス 35" d="M165.099 22.166h-1.124l.375 5.119h1.373l-.5-5.119z"/><path data-name="パス 36" d="M166.098 25.166h1.124l-.375-3h-1.249l.375 3z"/><path data-name="パス 37" d="M199.181 24.289c0 .5-.25.749-.624.749h-4.369V9.807h-2v15.231h-4.994V10.556h-2v14.482h-.37l.375 2h13.857c1.373 0 2.122-.749 2.122-2.247v-14.11h-2v13.608z"/><path data-name="パス 38" d="M217.912 16.174v.125a69.522 69.522 0 01-1.5 5.119 27.17 27.17 0 01-1.873 4.494l-.125.25h2.247v-.125a29.156 29.156 0 001.873-4.619q.936-2.809 1.5-5.243v-.251h-2.122z"/><path data-name="パス 39" d="M230.017 13.428h-6.367v-2.747h-2.122v2.747h-6.617l.125 2h6.367v11.61h2.122V15.425h6.367v-2z"/><path data-name="パス 40" d="M228.773 21.293l-1.5-4.994h-2v.25c1.124 4.494 2.122 7.74 3.246 9.738v.125h2.122l-.125-.25c-.374-1.249-.998-2.872-1.743-4.869z"/><path data-name="パス 41" d="M243.75 15.924l.25 2h7.491a9.587 9.587 0 01-1 4.744 4.844 4.844 0 01-3.995 2.247h-.125v2.122h.25q4.12-.562 5.618-3a11.369 11.369 0 001.373-6.117h6.617v-2H243.75z"/><path data-name="パス 42" d="M257.982 13.305v-2h-11.985l.125 2z"/><path data-name="パス 43" d="M278.455 11.804h-2v1.248a28.917 28.917 0 01-.749 7.116 30.053 30.053 0 01-2.372 6.242l-.125.25h2.372v-.125a27.349 27.349 0 003-12.734v-1.872h-.125z"/><path data-name="パス 44" d="M286.57 23.04l-2.372 1.248-.749.125c-.5 0-.749-.25-.749-.874V11.555h-2.122v12.359a2.328 2.328 0 00.874 2 2.983 2.983 0 001.748.624 4.194 4.194 0 001.873-.5 36.364 36.364 0 003.995-2.247h.125v-2.5z"/></g></g></g><g data-name="グループ 15"><g data-name="グループ 12"><path data-name="パス 5" d="M249.117 60.951a8.6 8.6 0 01-.375-1l-.125-1.873V46.594l.125-1.873c.125-.5.125-.749.375-1a1.279 1.279 0 01.749-.624v-.123h-5.368v.125a1.279 1.279 0 01.749.624 8.612 8.612 0 01.375 1l.125 1.873V58.08l-.125 1.873a8.613 8.613 0 01-.375 1 1.835 1.835 0 01-.749.624v.125h5.368v-.128a3.31 3.31 0 01-.749-.623z"/><path data-name="パス 6" d="M259.854 60.452l-1-.874-.874-.874-1.748-2.247-3.99-5.368c.125 0 6.617-8.364 6.617-8.364l.125-.125h-5.493l.25.125c.5.375.874.749.874 1.124a2.493 2.493 0 01-.374 1l-1 1.5-3.999 5.24.749.874 2.372 3.371 3 3.87a3.767 3.767 0 001.623 1.373 4.169 4.169 0 001.873.375l3-.125-.125-.125z"/><path data-name="パス 7" d="M285.571 60.202a15.117 15.117 0 01-1.248-2.5l-5.993-14.978h-4.619v.125c.5.25.874.624.874 1a3.308 3.308 0 01-.375 1.248l-4.994 12.609a17.945 17.945 0 01-1.124 2.5 3.088 3.088 0 01-1.5 1.248l-.25.125h5.743l-1-.749a.953.953 0 01-.25-.624 9.222 9.222 0 01.25-1.5l1.623-4.369h7.116c0 .125 1.623 4.369 1.623 4.369a5.014 5.014 0 01.5 1.623l-.125.5-1 .749h6.492l-.25-.125a3.67 3.67 0 01-1.493-1.251zm-6.492-7.615h-5.618c.125-.125 2.747-6.866 2.871-7.241.125.378 2.747 7.116 2.747 7.241z"/><path data-name="パス 8" d="M298.555 60.951a8.592 8.592 0 01-.374-1l-.125-1.873V46.594l.125-1.873c.125-.5.125-.749.374-1a1.279 1.279 0 01.749-.624v-.123h-5.368v.125a1.279 1.279 0 01.749.624 8.623 8.623 0 01.375 1l.125 1.873V58.08l-.125 1.873c-.125.375-.125.749-.375 1a1.835 1.835 0 01-.749.621v.125h5.368v-.125a1.278 1.278 0 01-.749-.623z"/><path data-name="パス 9" d="M309.292 60.452l-1-.874-.874-.874-1.748-2.247-3.99-5.368c.125 0 6.617-8.364 6.617-8.364l.125-.125h-5.493l.25.125c.5.375.874.749.874 1.124a2.493 2.493 0 01-.375 1l-1 1.5-3.998 5.24.749.874 2.372 3.371 3 3.87a3.767 3.767 0 001.623 1.373 4.169 4.169 0 001.873.375l3-.125-.125-.125z"/><path data-name="パス 10" d="M333.882 60.951a8.59 8.59 0 01-.375-1l-.125-1.873V46.594l.125-1.873a8.6 8.6 0 01.375-1 1.834 1.834 0 01.749-.624l.25-.125h-5.989l.25.125a1.279 1.279 0 01.749.624 8.591 8.591 0 01.375 1l.125 1.873v9.363l-.125 1.373-.5.874a3.922 3.922 0 01-1.748 1.373 5.066 5.066 0 01-2.372.5 5.175 5.175 0 01-2-.375 4.751 4.751 0 01-1.623-1.124 4.22 4.22 0 01-.749-1.5 8.962 8.962 0 01-.25-2.122v-8.362l.125-1.873a4.229 4.229 0 01.375-1 1.279 1.279 0 01.749-.624l.25-.125h-5.741v.125a1.279 1.279 0 01.749.624 8.59 8.59 0 01.375 1l.125 1.873v10.237l.25 1.248.375 1a5.436 5.436 0 002.372 2.372 7.071 7.071 0 003.62.874 6.926 6.926 0 005.618-2.372v1.873h4.37l-.25-.125c-.126-.25-.376-.5-.504-.75z"/><path data-name="パス 11" d="M355.858 59.078a10.925 10.925 0 01-3 .375c-1.623 0-3.62-.125-5.868-.25.125-.25 10.487-16.479 10.487-16.479h-12.73c-.125 0-1.5 3.246-1.5 3.246l-.125.25.25-.125a10 10 0 012.122-1 10.928 10.928 0 012.5-.25 44.061 44.061 0 014.494.25c-.125.25-10.487 16.479-10.487 16.479h15.231c.125 0 1.623-3.62 1.623-3.62l.125-.25-.125.125a10.973 10.973 0 01-2.997 1.249z"/><path data-name="パス 12" d="M383.822 60.202a15.115 15.115 0 01-1.248-2.5l-5.993-14.978h-4.619v.125c.5.25.874.624.874 1a3.309 3.309 0 01-.375 1.248l-4.994 12.609a17.969 17.969 0 01-1.124 2.5 3.089 3.089 0 01-1.5 1.248l-.25.125h5.743l-1-.749a.954.954 0 01-.25-.624 4.316 4.316 0 01.375-1.5l1.623-4.369h7.116c0 .125 1.623 4.369 1.623 4.369a5.015 5.015 0 01.5 1.623l-.125.5-1 .749h6.498l-.25-.125a3.35 3.35 0 01-1.624-1.251zm-6.492-7.615h-5.618c.125-.125 2.747-6.866 2.871-7.241.125.378 2.747 7.116 2.747 7.241z"/><path data-name="パス 13" d="M405.794 42.724h-.25l.25.125a2.131 2.131 0 011.124 1.248 4.605 4.605 0 01.25 2.122v10.987c-.25-.375-10.487-13.358-10.487-13.358l-.624-1h-4.494l1 .874a2.511 2.511 0 01.5 1l.125 1.5v12.11l-.125 1.5a2.511 2.511 0 01-.5 1l-1.124.874h5.368l-.874-.749-.375-.624-.25-.874-.125-1.124V47.093c.25.25 9.863 12.484 9.863 12.484a8.826 8.826 0 001.873 1.873 6.94 6.94 0 002.118 1.124h.125v-16.35l.125-1.5a2.511 2.511 0 01.5-1l1.124-.874h-5.119z"/><path data-name="パス 14" d="M449.112 60.951a8.6 8.6 0 01-.375-1l-.125-1.873V46.594a10.925 10.925 0 01.25-2.5 1.772 1.772 0 011-1.124l.25-.125h-5.868l.25.125a1.279 1.279 0 01.749.624 8.579 8.579 0 01.375 1l.125 1.873v3.87l-10.237-.125.125-3.87.125-1.873c.125-.5.125-.749.375-1a1.278 1.278 0 01.749-.624v-.121h-5.368v.125a1.279 1.279 0 01.749.624 8.6 8.6 0 01.374 1l.125 1.873V57.83l-.125 1.873c-.125.375-.125.749-.374 1a1.835 1.835 0 01-.749.624v.125h5.368v-.128a1.279 1.279 0 01-.749-.624 8.59 8.59 0 01-.375-1l-.125-1.873v-5.24s9.987.125 10.112.125v5.368l-.125 1.873a4.223 4.223 0 01-.375 1 1.278 1.278 0 01-.749.624l-.25.125h5.992l-.25-.125c-.374-.253-.746-.376-.874-.626z"/><path data-name="パス 15" d="M475.956 45.096a15.6 15.6 0 00-2.122-1.5 8.191 8.191 0 00-2.622-1 9.736 9.736 0 00-2.747-.375 13.147 13.147 0 00-5.493 1.248 9.855 9.855 0 00-3.87 3.62 9.015 9.015 0 00-1.373 5.119 10.008 10.008 0 001.373 4.994 10.413 10.413 0 003.745 3.62 10.836 10.836 0 005.243 1.248 11.435 11.435 0 005.368-1.373 10.776 10.776 0 003.87-3.62 9.015 9.015 0 001.373-5.119 10.654 10.654 0 00-.749-3.87 7.9 7.9 0 00-1.996-2.992zm-7.615 14.856a6.351 6.351 0 01-2.747-.5 8.462 8.462 0 01-2.247-1.623 8.862 8.862 0 01-1.248-1.748 6.147 6.147 0 01-.749-2.122 13.905 13.905 0 01-.25-2.122 8.394 8.394 0 01.5-3 8.482 8.482 0 011.373-2.372 6.445 6.445 0 012.372-1.5 7.406 7.406 0 012.871-.624 6.872 6.872 0 015.368 2.5 8.959 8.959 0 011.873 5.618 7.555 7.555 0 01-.5 3 7.677 7.677 0 01-1.5 2.372 7.083 7.083 0 01-2.247 1.5 5.69 5.69 0 01-2.869.622z"/><path data-name="パス 16" d="M499.177 42.725h-11.86a3.854 3.854 0 01-1.373-.25c-.125 0-1.124 3.5-1.124 3.5l-.125.25.125-.125a7.019 7.019 0 011.623-.874 8.964 8.964 0 012.122-.25l2.247.125-.125 12.859-.125 1.873a4.223 4.223 0 01-.375 1 1.278 1.278 0 01-.749.624v.118h5.868l-1.124-.874a2.509 2.509 0 01-.5-1l-.125-1.5V44.975l.375.125 2-.125a5.787 5.787 0 011.748.25 1.493 1.493 0 01.874.874l.125.125 1-3.745h-.125z"/><path data-name="パス 17" d="M517.153 59.079a11.24 11.24 0 01-3.121.375c-1.124 0-2.247-.125-3.5-.25v-6.617h2.5a3.882 3.882 0 011.373.125 1.664 1.664 0 01.749.624l.125.125v-3.37h-.125a2.125 2.125 0 01-.874.125h-3.87l.125-5.243a18.523 18.523 0 012.871-.125 8.964 8.964 0 012.122.25 3.232 3.232 0 011.373.874l.125.125V42.6h-.125l-1 .125h-9.734l.25.125a1.278 1.278 0 01.749.624 8.58 8.58 0 01.375 1l.125 1.873v11.484l-.125 1.873a4.226 4.226 0 01-.375 1 1.835 1.835 0 01-.749.624v.125h11.86c.125 0 1.373-3.745 1.373-3.745l.125-.25-.25.125a4.51 4.51 0 01-2.372 1.496z"/><path data-name="パス 18" d="M539.75 57.83a10.091 10.091 0 01-2.5 1.373 8.3 8.3 0 01-2.622.375c-1.248 0-2.5-.125-3.87-.25l.125-12.734.125-1.873a1.229 1.229 0 01.375-1 1.278 1.278 0 01.749-.624v-.123h-5.366v.125a1.278 1.278 0 01.749.624 8.59 8.59 0 01.375 1l.125 1.873V58.08l-.125 1.873c-.125.375-.125.749-.375 1a1.835 1.835 0 01-.749.624v.125h11.61s1.5-3.87 1.373-3.87l.25-.125z"/></g><g data-name="グループ 13"><path data-name="パス 19" d="M100.056 45.471H89.944l-1.373-.125-.125.125-1.124 3.5 1.748-1 1.752-.125s1.5.125 1.748.125v10.983l-.125 1.623-.25.874-1.124.874h5.992l-1.248-1-.375-.749-.125-1.248V48.093h.25l1.748-.125 1.5.125a1.5 1.5 0 01.624.624l.25.5 1-3.87-.375.125c.243-.126-.256-.001-.256-.001z"/><path data-name="パス 20" d="M116.535 54.334l-1.248-.874-2.372-1.124-2.247-1.124-1-.874-.25-1a1.63 1.63 0 01.874-1.5 3.992 3.992 0 012.247-.624 5.175 5.175 0 012 .375 5.236 5.236 0 011.748 1.124l.375.375v-3.492h-.125a13.733 13.733 0 00-3.87-.5 9.567 9.567 0 00-3.371.5 4.4 4.4 0 00-2.247 1.623 4.218 4.218 0 00-.749 2.5 3.844 3.844 0 00.375 1.623 5.543 5.543 0 001 1.373l1.248 1 2.122 1 2.122 1 1 .624a2.2 2.2 0 01.749 1.623 2.014 2.014 0 01-.375 1.124 3.186 3.186 0 01-1.248.874 3.987 3.987 0 01-1.748.375 8.434 8.434 0 01-5.243-1.873l-.5-.375.874 3.745 2.372.624 2.247.125a7.6 7.6 0 005.368-1.873 4.751 4.751 0 001.124-1.623 5.009 5.009 0 00.375-1.873 3.844 3.844 0 00-.375-1.623z"/><path data-name="パス 21" d="M139.131 61.201l-.25-.874-.125-1.623v-9.987l.125-1.623.25-.749 1.124-.874h-5.743l1.124.874.25.874.125 1.623v7.99l-.125 1.124-.375.749a3.9 3.9 0 01-1.373 1.124 5.234 5.234 0 01-2 .5 3.456 3.456 0 01-1.623-.375 2.493 2.493 0 01-1.248-1l-.624-1.124-.125-1.873v-7.115l.125-1.623.25-.874 1.124-.874h-5.742l.5.375.624.5.25.874.125 1.623v8.738l.125 1.124.375 1a4.973 4.973 0 002.122 2.122 6.911 6.911 0 003.246.749 6.284 6.284 0 004.619-1.873v1.5h4.245l-.5-.375z"/><path data-name="パス 22" d="M160.729 45.471h-5.243l.5.375.5.5.25.5a2.874 2.874 0 01-.375 1.124s-2.622 3.995-2.871 4.494c-.375-.5-3.5-5.743-3.5-5.743l-.749-1-.874-.25h-.5l-3.121.125 1.623 1.124 1 1.373 4.245 6.866v3.87l-.125 1.623-.25.749-1 1h5.743l-1.124-1.124-.375-.749-.125-1.248v-4.12c.129-.126 6.371-9.489 6.371-9.489z"/><path data-name="パス 23" d="M180.204 60.702l-1-2.122-5.242-13.109h-3.995l-.125.375c.375.25.624.5.624.749l-.25 1-4.369 10.861-1 2.122a3.743 3.743 0 01-1.248 1.124l-.624.375h5.868l-1.248-.874-.125-.5.25-1.248s1.124-3 1.373-3.62h5.992c.125.25 1.373 3.62 1.373 3.62l.375 1.248-.125.375-1.248.874h6.492l-.624-.375a1.992 1.992 0 01-1.124-.875zm-5.992-6.741h-4.369c.25-.5 1.873-4.869 2.247-5.618.249.873 1.997 5.243 2.122 5.617z"/><path data-name="パス 24" d="M208.044 60.826l-.375-1.748-1.5-10.861-.125-.874a1.461 1.461 0 01.624-1.373l-.125-.375h-4.491l-.125.874-.375 1s-3 7.74-3.745 9.738c-.375-.874-4.494-10.612-4.494-10.612l-.25-.874h-4.991l1 1 .125.624-.125 1.25-1.373 10.362-.375 1.873a2.854 2.854 0 01-.874 1.248l-.375.375h5.119l-1-.874-.25-.375-.125-.624.125-1.248s1.124-8.739 1.373-10.112c.5 1.248 4.494 10.736 4.494 10.736l.5 1 .375.624.5.5 1 .874s4.744-12.235 5.368-13.608c.125 1.373 1.248 9.738 1.248 9.738l.125 1.373-.25 1.124c-.125.25-.375.375-.749.624l.125.375h5.368l-.5-.375a14.381 14.381 0 00-.877-1.379z"/><path data-name="パス 25" d="M232.015 61.825a5.623 5.623 0 01-1.248-1.124l-1-2.122-5.243-13.108h-3.995l-.125.375c.375.25.624.5.624.749l-.25 1-4.37 10.861-1 2.122a3.743 3.743 0 01-1.248 1.124l-.624.375h5.868l-1.248-.874-.125-.5.25-1.248s1.124-3 1.373-3.62h5.992c.125.25 1.373 3.62 1.373 3.62l.375 1.248-.125.375-1.248.874h6.492zm-7.116-7.865h-4.369c.125-.5 1.873-4.869 2.247-5.618.249.874 1.997 5.244 2.122 5.618z"/></g><g data-name="グループ 14"><path data-name="パス 26" d="M91.816 16.922l.25.125v-2.123h-.125a21.144 21.144 0 00-4.244-1.373h-.25v2h.125a18.677 18.677 0 014.244 1.371z"/><path data-name="パス 27" d="M91.816 12.802l.25.125v-2.123h-.125a21.09 21.09 0 00-4.244-1.248h-.25v1.873h.125a18.678 18.678 0 014.244 1.373z"/><path data-name="パス 28" d="M92.066 17.92h-1.873v.25a7.245 7.245 0 01-2.622 5.868h-.124v2.372l.25-.125a9.079 9.079 0 004.245-8.115z"/><path data-name="パス 29" d="M103.801 12.552c0-1.623-.874-2.5-2.622-2.5h-2.247V8.807h-2v1.248h-4.619l.25 1.748h4.494v1.248h-4.866l.25 1.873h4.744v1.248h-4.619l.125 1.748h4.494v1.248h-4.869l.25 1.873h4.619v1.373h-5.244l.25 1.873h4.994v2.372h1.873v-2.372h5.618v-1.872h-5.618v-1.373h5.243v-1.873h-5.243V17.92h4.994v-3.121h.749v-1.872h-.749c-.251 0-.251-.375-.251-.375zm-1.873 2.372v1.248h-3.121v-1.248zm-1-3.121c.749 0 1 .25 1 .874v.375h-3.121v-1.245z"/><path data-name="パス 30" d="M134.388 23.289c0 .5-.25.749-.624.749h-4.37V8.807h-2v15.231H122.4V9.556h-2v14.482h-.369l.375 2h13.857c1.373 0 2.122-.749 2.122-2.247V9.681h-2z"/><path data-name="パス 31" d="M158.357 22.789h2v-1.747h-2v-1.374h2V17.92h-2v-1.5h2.247v-1.745h-2.122c0-.25.125-1 .125-1h-1.748s-.125.749-.125 1h-1.119a9.016 9.016 0 001.748-3.246h1.373a.331.331 0 01.375.375v2.122h1.748v-2.248a1.747 1.747 0 00-1.873-2h-1.124a7.039 7.039 0 01.125-.874h-1.873v.125a4.415 4.415 0 00-.125.749h-3.5v4.12h1.248a7.838 7.838 0 01-1.5 1.373h-.122v2.122a7.392 7.392 0 01.749-.5v7.116h-.375l.375 1.748h7.491v-1.744h-2.122c.124 0 .124-.874.124-1.124zm-3-11.236a6.331 6.331 0 01-1.124 2v-2zm1.248 11.236v1.5h-1.873v-1.5zm0-3.121v1.373h-1.873v-1.373zm-1.873-1.748v-1.5h1.873v1.5z"/><path data-name="パス 32" d="M160.855 21.166v.25a12.563 12.563 0 01-.375 3.371v2.372l.375-.375a8.5 8.5 0 001.373-5.243v-.25h-1.373z"/><path data-name="パス 33" d="M162.729 15.923h1.873c1.623 0 1.748.375 1.748.375v.25h2.372v-4.745a1.876 1.876 0 00-2-2.122h-1.373a4.908 4.908 0 00.25-.749h-2a2.589 2.589 0 01-.25.749h-2.247v9.488h-.373l.25 1.623h5.868c.25 0 .624.125.624.874v2.871h-1.623l.25 1.623h3.121v-4.744c0-1.5-.749-2.247-2.122-2.247h-4.245v-.5h6.492v-1.622h-6.492a3.457 3.457 0 01-.123-1.124zm0-1.124v-.874h4.245v.874zm0-2.622v-1h3.371c.749 0 .749.375.749.624v.375z"/><path data-name="パス 34" d="M163.477 21.166h-1l.125 5.119h1.375l-.25-5.119z"/><path data-name="パス 35" d="M165.099 21.166h-1.124l.375 5.119h1.373l-.5-5.119z"/><path data-name="パス 36" d="M166.098 24.166h1.124l-.375-3h-1.249l.375 3z"/><path data-name="パス 37" d="M199.181 23.289c0 .5-.25.749-.624.749h-4.369V8.807h-2v15.231h-4.994V9.556h-2v14.482h-.37l.375 2h13.857c1.373 0 2.122-.749 2.122-2.247V9.681h-2v13.608z"/><path data-name="パス 38" d="M217.912 15.174v.125a69.522 69.522 0 01-1.5 5.119 27.17 27.17 0 01-1.873 4.494l-.125.25h2.247v-.125a29.156 29.156 0 001.873-4.619q.936-2.809 1.5-5.243v-.251h-2.122z"/><path data-name="パス 39" d="M230.017 12.428h-6.367V9.681h-2.122v2.747h-6.617l.125 2h6.367v11.61h2.122V14.425h6.367v-2z"/><path data-name="パス 40" d="M228.773 20.293l-1.5-4.994h-2v.25c1.124 4.494 2.122 7.74 3.246 9.738v.125h2.122l-.125-.25c-.374-1.249-.998-2.872-1.743-4.869z"/><path data-name="パス 41" d="M243.75 14.924l.25 2h7.491a9.587 9.587 0 01-1 4.744 4.844 4.844 0 01-3.995 2.247h-.125v2.122h.25q4.12-.562 5.618-3a11.369 11.369 0 001.373-6.117h6.617v-2H243.75z"/><path data-name="パス 42" d="M257.982 12.305v-2h-11.985l.125 2z"/><path data-name="パス 43" d="M278.455 10.804h-2v1.248a28.917 28.917 0 01-.749 7.116 30.053 30.053 0 01-2.372 6.242l-.125.25h2.372v-.125a27.349 27.349 0 003-12.734v-1.872h-.125z"/><path data-name="パス 44" d="M286.57 22.04l-2.372 1.248-.749.125c-.5 0-.749-.25-.749-.874V10.555h-2.122v12.359a2.328 2.328 0 00.874 2 2.983 2.983 0 001.748.624 4.194 4.194 0 001.873-.5 36.364 36.364 0 003.995-2.247h.125v-2.5z"/></g></g></g></svg>