<svg xmlns="http://www.w3.org/2000/svg" width="801.001" height="283.001"><g fill="#fafafa"><text data-name="As Tsuyama's guest house, it should retain its appearance for the next hundred years." transform="translate(1 230.001)" font-size="16" font-family="LibreBaskerville-Regular, Libre Baskerville" letter-spacing=".1em" opacity=".6"><tspan x="0" y="16">As Tsuyama&apos;s guest house,</tspan><tspan x="0" y="48">it should retain its appearance for the next hundred years.</tspan></text><path data-name="合体 8" d="M51.924 182.375a52.514 52.514 0 01-13.033-5.952q-14.823 7.578-37.391 9.5L1 184.59q20.069-3.667 33.31-11.577a36.533 36.533 0 01-7.994-9.91 67.142 67.142 0 01-11.159 7.494 72.59 72.59 0 01-12.408 5.33l-.583-1.165a67.243 67.243 0 0014.282-10.284 59.013 59.013 0 0010.7-12.783 3.7 3.7 0 01-2.54-1.707 8.4 8.4 0 01-.625-3.705v-5.913a47.348 47.348 0 00-.333-6.245 58.148 58.148 0 016.454 2.123c1.193.53 1.79.986 1.79 1.374q0 .336-.5.666l-1.083.75v6q0 .749.417.958a6.407 6.407 0 002.164.208h7q5.412 0 6.329-.083a2.6 2.6 0 001.666-.666 27.844 27.844 0 002.248-5.663h.916l.249 5.746a4.581 4.581 0 011.915 1.083 2.222 2.222 0 01.5 1.5 2.671 2.671 0 01-1.208 2.332 10.2 10.2 0 01-4.289 1.208 79.5 79.5 0 01-8.911.374h-7.245q4.331 1.832 4.331 2.665c0 .166-.278.308-.833.417l-1.332.167q-1.666 2-2.581 3h17.32l2.165-2.082c.278-.22.736-.625 1.374-1.207a2.707 2.707 0 011.457-.875c.333 0 1.041.489 2.124 1.457a32.544 32.544 0 013.039 3.123q1.416 1.669 1.416 2.248a2.242 2.242 0 01-1.165.708 15.925 15.925 0 01-2.416.374 47 47 0 01-12.242 11.075q11.826 4 29.647 4.664v1q-4.5 1.332-5.663 7.245a107.4 107.4 0 01-16.779-3.639zm-24.358-20.274a32.8 32.8 0 0010.742 8.327 40.812 40.812 0 009.993-9.743H29.148zm306.842 20.235l-1.75-2.664q-2.414-3.911-4.33-6.454a28.062 28.062 0 00-4.664-4.788c-.277-.222-.61-.47-1-.75s-.583-.5-.583-.666c0-.278.22-.417.667-.417a14.919 14.919 0 011.5.167 38.289 38.289 0 017.286 2.706 33.385 33.385 0 017.745 4.954q3.374 2.919 3.373 6.246a4.744 4.744 0 01-1.249 3.5 3.913 3.913 0 01-2.831 1.247q-2.166 0-4.164-3.081zm448.065 1.165a12.61 12.61 0 01-4.58-4.539 12.08 12.08 0 01-1.707-6.287 11.929 11.929 0 011.707-6.2 12.587 12.587 0 014.58-4.538 12.158 12.158 0 016.2-1.666 11.941 11.941 0 016.162 1.666 12.4 12.4 0 014.5 4.538 12.183 12.183 0 011.665 6.2 12.338 12.338 0 01-1.665 6.287 12.422 12.422 0 01-4.5 4.539 11.949 11.949 0 01-6.162 1.665 12.166 12.166 0 01-6.2-1.665zm-.417-17.321a8.763 8.763 0 00-2.706 6.5 8.9 8.9 0 002.706 6.538 9.011 9.011 0 006.62 2.706 8.821 8.821 0 006.454-2.706 8.917 8.917 0 002.706-6.538 8.78 8.78 0 00-2.706-6.5 8.882 8.882 0 00-6.454-2.664 9.076 9.076 0 00-6.62 2.665zM483.7 177.756q-3.872-5.247-3.873-14.406 0-2.915.084-4.247-6.579-2.665-6.579-7.161 0-4.664 8.328-11.576c.22-1.332.43-2.525.625-3.58s.374-2 .541-2.831l.417-2a27.038 27.038 0 01-9.16-6.162 5.728 5.728 0 01-.625-.707.952.952 0 01-.208-.541.368.368 0 01.416-.417 4.931 4.931 0 011.249.417 33.254 33.254 0 009.244 2.415 42.955 42.955 0 00.916-7.828 13.608 13.608 0 00-.833-4.913 6.473 6.473 0 00-1.665-2.623q-1-.875-1.249-1.124a.913.913 0 01-.333-.583q0-.583 1.332-.583a10.687 10.687 0 013.164.583 10.574 10.574 0 013.164 1.582q3.5 2.581 3.5 6.162a15.143 15.143 0 01-1.415 5.746l-2 4.331a23.443 23.443 0 015.08 1.248 5.315 5.315 0 012.915 2.083 5.3 5.3 0 01.915 2.914q0 3.164-3.83 3.664a25.79 25.79 0 00-8.827 2.748 117.824 117.824 0 00-2.082 13.241l1.165.084c.554.055 1.416.083 2.582.083l4.163-.083a8.025 8.025 0 014.122 1 3.324 3.324 0 011.707 3.081 2.605 2.605 0 01-1.79 2.624 11.173 11.173 0 01-4.122.707 31.739 31.739 0 01-8.161-1.082v.249q0 7.827 2.789 12.532t9.285 4.705a11.492 11.492 0 008.786-3.705 13.661 13.661 0 003.456-9.7 20.194 20.194 0 00-3.289-10.784 37.5 37.5 0 00-8.952-9.7q-.915-.667-.915-1.083 0-.25.416-.249a1.6 1.6 0 01.625.167 4.419 4.419 0 00.708.249 34.786 34.786 0 0114.324 9.951 21.035 21.035 0 015.162 13.615 14.524 14.524 0 01-2.873 9.035 18.248 18.248 0 01-7.328 5.746 22.7 22.7 0 01-9.2 1.958q-8.004-.007-11.871-5.252zm-6.2-31.395a6.072 6.072 0 00-1.416 3.5q0 2.333 4.08 3.331.417-4.829 1.166-10.492a17.318 17.318 0 00-3.839 3.662zm9.077-12.325q-.25.833-.833 3.332a20.965 20.965 0 002.29-1.582q1.041-.833 1.041-1.249 0-.333-.541-.583a6.451 6.451 0 00-1-.374q-.458-.126-.791-.209zm150.56 46.841a11.519 11.519 0 01-4.7-3.29 7.722 7.722 0 01-1.831-5.162q0-5 4.747-7.7a22.5 22.5 0 0111.326-2.706 18.833 18.833 0 012 .084q-.08-2.331-.081-7.162 0-3.33.081-4.913a28.444 28.444 0 011.416-8.244 11.664 11.664 0 013.916-5.288 26.227 26.227 0 017.889-3.795q1.332-.416 1.335-1.416a3.459 3.459 0 00-1.043-2.248q-1.038-1.166-3.038-3c-.555-.277-.835-.527-.835-.75s.308-.333.919-.333a11.762 11.762 0 012.912.5 19.169 19.169 0 017.536 3.789q3.456 2.79 3.459 5.954a4.385 4.385 0 01-1.252 3.247 4.076 4.076 0 01-3 1.249 4.512 4.512 0 01-2.124-.458 20.809 20.809 0 01-2.459-1.624 18 18 0 00-2.456-1.374 5.23 5.23 0 00-2.124-.457 5.654 5.654 0 00-4.872 2.54 12.237 12.237 0 00-1.788 7.12 87.029 87.029 0 001.5 13.324q.5 3 .667 4.414 8 2 11.659 4.829a7.062 7.062 0 012.251 2.29 4.912 4.912 0 01.747 2.457 3.423 3.423 0 01-.875 2.332 2.713 2.713 0 01-2.123 1 6.1 6.1 0 01-2.665-.75 32.293 32.293 0 01-3.578-2.165 42.5 42.5 0 00-4.667-2.582v.667a9.366 9.366 0 01-3.789 7.827 14.506 14.506 0 01-9.113 2.918 16.213 16.213 0 01-5.956-1.122zm-.664-12.366a3.435 3.435 0 00-2.473 3.332 3.856 3.856 0 002.209 3.5 10.377 10.377 0 005.206 1.249q4.327 0 5.746-2.165a11.885 11.885 0 001.5-6.245 34.424 34.424 0 00-6.162-.666 16.066 16.066 0 00-6.035.996zm-459.9 7.079a43.193 43.193 0 00-2.248-8.743l-.75-1.915a41.936 41.936 0 01-3.248 5.662 7.185 7.185 0 01-1.915 1.874 3.724 3.724 0 01-2 .708 2.379 2.379 0 01-1.958-1.041 4.212 4.212 0 01-.791-2.624q0-3.164 2.665-7.161 1-1.582 3.5-5.08a81.179 81.179 0 01-3.456-7.786 18.329 18.329 0 01-1.291-6.37 6.76 6.76 0 01.583-2.956 7.3 7.3 0 012-2.373 20.941 20.941 0 015.329-2.748 46.577 46.577 0 017.245-2.165q.167-4.663.167-6.578a19.043 19.043 0 00-.541-4.705 9.256 9.256 0 00-2.207-3.956 14.151 14.151 0 00-1.957-1.582q-1.208-.833-1.208-1.083t.416-.374a2.875 2.875 0 01.833-.125 20.483 20.483 0 013.081.417 17.7 17.7 0 015.58 2.873 5.581 5.581 0 012.415 4.538 25.044 25.044 0 01-1.165 5.58q-1 3.914-1.083 4.413h.167a2.991 2.991 0 012.207.875 3.1 3.1 0 01.874 2.29 10.608 10.608 0 01-1.582 4.331 67.246 67.246 0 0112.436-10.785q6.2-4.039 11.034-4.039a8.474 8.474 0 016.663 2.706 10.172 10.172 0 012.415 7.037 32.91 32.91 0 01-.5 5.454q-.5 2.956-1.416 7.286-1.083 5.33-1.582 8.244a33.972 33.972 0 00-.5 5.746q0 3.665 1.706 5.413a5.847 5.847 0 004.372 1.749 11.436 11.436 0 006.454-2.248q3.29-2.249 7.537-8.161a7.531 7.531 0 00.625-.832 5.015 5.015 0 01.75-.916.829.829 0 01.458-.25c.111 0 .166.112.166.333a7.317 7.317 0 01-.833 2.332q-7.328 15.906-16.738 15.906-5.913 0-9.035-3.373a11.742 11.742 0 01-3.123-8.285 45.33 45.33 0 01.666-7.411q.667-4 1.915-9.493 1-4.413 1.458-7.12a29.038 29.038 0 00.458-4.7 7.241 7.241 0 00-1.083-4.164 3.674 3.674 0 00-3.248-1.582q-5 0-11.784 5.829a82.782 82.782 0 00-12.533 13.574q-.084 2.5-.084 6.412 0 5.663.5 10.66.331 2.747.916 6.245.084.749.292 2.207a18.289 18.289 0 01.208 2.54 5.143 5.143 0 01-1.04 3.456 3.318 3.318 0 01-2.624 1.207q-3.747-.01-4.579-5.172zm-1.915-12.908q1.582 2.832 1.832 3.164.166.25.624 1.083a9.92 9.92 0 00.75 1.208q.292.374.458.374.25 0 .333-1.541t.084-3.705q0-2.082.167-6.079l.083-3q-2.344 4.167-4.342 8.497zm-.292-22.525a13.2 13.2 0 00-4.455 2.248 4.18 4.18 0 00-1.832 3.29q0 3.664 2.915 9.91 2.248-3.082 4.5-6.287a56.675 56.675 0 003.415-5.371 7.362 7.362 0 00.75-1.665l.249-2.831a1.722 1.722 0 00-.666-.084 16.942 16.942 0 00-4.887.791zm531.087 34.558q-4.373-5.949-4.372-17.779a161.712 161.712 0 011.165-18.237q.751-6.912.75-10.326a16.15 16.15 0 00-1.135-6.372 7.869 7.869 0 00-3.289-3.872 4.324 4.324 0 00-.458-.333q-.374-.25-.374-.5c0-.386.527-.694 1.582-.916a14.742 14.742 0 013-.333q5.162 0 7.2 2.456t2.04 7.037a40.766 40.766 0 01-.583 5.912q-.583 3.748-1.332 7.745a90.343 90.343 0 00-2 17.4 28.1 28.1 0 001.457 10.034 9.7 9.7 0 004.621 5.33 18.954 18.954 0 008.578 1.624q11.908 0 27.148-12.907a4.463 4.463 0 011.582-.916.221.221 0 01.25.25 4.436 4.436 0 01-1 1.749q-14.572 18.905-30.395 18.9-10.073.01-14.446-5.945zm-601.069 3.586a14.121 14.121 0 01-6.287-5.246 12.956 12.956 0 01-1.957-6.871 11.784 11.784 0 012.5-7.453 15.728 15.728 0 016.5-4.871 21.233 21.233 0 018.244-1.666 28.746 28.746 0 016.121.625q2.873.625 6.87 1.79a23.408 23.408 0 004.414 1.083 1.83 1.83 0 001.458-.625 2.389 2.389 0 00.541-1.624 8.315 8.315 0 00-1-3.331 29.19 29.19 0 00-5.038-8.328 51.631 51.631 0 00-7.62-7.328 46.2 46.2 0 01-8.036 2.79 28.707 28.707 0 01-6.454.958 16.062 16.062 0 01-8.327-2.5 20.969 20.969 0 01-6.663-6.162 3 3 0 01-.833-1.416q0-.333.417-.333a2.124 2.124 0 01.707.292c.361.2.708.374 1.041.541a30.547 30.547 0 005.954 2.5 20.069 20.069 0 005.787 1.083 21.946 21.946 0 004.414-.625 44.2 44.2 0 005.58-1.624 30.244 30.244 0 00-5.913-2.915 8.755 8.755 0 01-3.456-2.748 5.974 5.974 0 01-1.291-3.581 5.179 5.179 0 011.5-3.5 4.658 4.658 0 013.58-1.665 5.416 5.416 0 012.749.833 19.733 19.733 0 0011.659 4 20.6 20.6 0 003.247-.333 20.014 20.014 0 013-.333 6.069 6.069 0 013.164.75 2.318 2.318 0 011.249 2.082 4.865 4.865 0 01-.915 2.581 15.626 15.626 0 01-2.416 2.831 32.162 32.162 0 01-5.912 4.414 100.012 100.012 0 018.119 7.328 56.85 56.85 0 015.788 6.662 32.369 32.369 0 013.206 5.2 11.437 11.437 0 011.124 4.954 7.788 7.788 0 01-1.165 4.039 10.692 10.692 0 01-2.873 3.206 5.532 5.532 0 01-3.207 1.249 4.08 4.08 0 01-2.123-.625 6.768 6.768 0 01-1.79-1.541 23.674 23.674 0 00-7.537-5.787 20.327 20.327 0 00-9.119-2.207 13.6 13.6 0 00-8.578 2.581 8.3 8.3 0 00-3.331 6.912 7.635 7.635 0 002.665 6.162q2.665 2.248 8.078 2.248a22.457 22.457 0 003.747-.374q2.165-.375 2.665-.458 2.665-.5 3.082-.5a6.7 6.7 0 014.288 1.416 4.029 4.029 0 011.79 3.164q0 3.081-5.5 3.913a42.255 42.255 0 01-6.745.5 27.066 27.066 0 01-11.162-2.117zm5.954-57.708a1.842 1.842 0 00-.375 1.04 3.065 3.065 0 00.916 2.082 8.237 8.237 0 001.915 1.582q1.75 1 4.331 2.749a11.025 11.025 0 003-2.083q1.165-1.165 1.165-1.749 0-.416-.666-.833-.583-.25-4.372-1.79a18.329 18.329 0 00-4.872-1.541 1.2 1.2 0 00-1.042.539zm158.692 56.708q-3.623-2.373-3.622-5.954a6.514 6.514 0 012.331-4.954 8.913 8.913 0 016.246-2.124 11.6 11.6 0 016.745 2.207 13.438 13.438 0 014.747 6.037 16.753 16.753 0 005.788-5.246 12.485 12.485 0 002.207-7.161q0-6.163-3.664-9.327a13.059 13.059 0 00-8.827-3.164 17.651 17.651 0 00-9.743 2.956q-4.585 2.957-8.578 10.2a34.24 34.24 0 01-3.123 5.2 3.81 3.81 0 01-3.122 1.374 4.064 4.064 0 01-2.875-1.044 3.517 3.517 0 01-1.124-2.706 9.9 9.9 0 011.749-5.5 90.763 90.763 0 016.579-8.244q-.25.25 6.246-7.161 9.909-11.071 13.157-15.405.333-.5.958-1.333a8.642 8.642 0 00.916-1.457 2.741 2.741 0 00.292-1.124 2.668 2.668 0 00-.666-1.665 1.856 1.856 0 00-1.416-.833q-.919 0-2.082 1.582-6.246 8.828-11.409 8.827a5.361 5.361 0 01-4.33-2.165 12.576 12.576 0 01-2.332-6.161 8.5 8.5 0 01-.167-1.5 1.442 1.442 0 01.083-.541c.053-.139.137-.209.25-.209.222 0 .608.361 1.165 1.083a3.743 3.743 0 003 1.832q3.665 0 11.576-4.913a8.033 8.033 0 014.5-1.582 13.6 13.6 0 014.414.916 14.749 14.749 0 014.5 2.5 4.592 4.592 0 011.915 3.581 4.708 4.708 0 01-1 2.79 14.34 14.34 0 01-3 2.873q-12.659 9.576-19.986 19.4a29.947 29.947 0 0114.572-4.156 23.326 23.326 0 018.994 1.79 17.059 17.059 0 017.121 5.413 14.1 14.1 0 012.785 8.868 15.685 15.685 0 01-3.289 9.951 20.859 20.859 0 01-8.577 6.412 28.221 28.221 0 01-10.951 2.207 15.993 15.993 0 01-8.953-2.37zm1.457-8.078a2.263 2.263 0 00-.75 1.706q0 1.666 2.54 2.749a13.345 13.345 0 005.288 1.083 17.965 17.965 0 002.082-.167q-2.086-6.076-6.912-6.079a3.163 3.163 0 00-2.248.706zm289.8 4.371q-4.539-5.246-4.538-16.238a37.388 37.388 0 014.747-18.779 39.7 39.7 0 0111.992-13.365 6.956 6.956 0 00-1.166.167 42.493 42.493 0 00-8.785 2.622 100.4 100.4 0 00-11.284 5.2q-1.753 1.17-3.253 2.252a20.1 20.1 0 01-3.539 2.332 7.8 7.8 0 01-3.456.75 6.444 6.444 0 01-3.748-1.374 15.761 15.761 0 01-3.372-3.289 12.334 12.334 0 01-1.957-3.414 2.08 2.08 0 01-.249-1.083c0-.5.22-.75.666-.75a2.113 2.113 0 011 .333q1.166.583 2.083.958a5.447 5.447 0 002.082.375 10.5 10.5 0 001.665-.167 21.532 21.532 0 002.373-.708q1.874-.624 3.456-1.124 8.578-2.915 15.948-5.08a100.211 100.211 0 0113.615-3.081 29.724 29.724 0 005.5-1.582q1.416-.5 2.873-.916a9.878 9.878 0 012.706-.417 10.557 10.557 0 015.913 1.874q2.828 1.874 2.831 4.206a2.926 2.926 0 01-.833 2.164 2.825 2.825 0 01-2.083.833 26.862 26.862 0 01-3.913-.5 29.4 29.4 0 00-5.58-.666 21.287 21.287 0 00-6.745 1.166q-3.664 1.332-6.537 6.537a46.827 46.827 0 00-4.455 11.825 51.3 51.3 0 00-1.583 11.783 29.73 29.73 0 00.958 8.494 7.53 7.53 0 003.122 4.413 11.24 11.24 0 005.913 1.333l2.248-.167a31.776 31.776 0 014-.333 9.387 9.387 0 015.121 1.207 3.548 3.548 0 011.874 3.04q0 2.747-3.415 3.58a30.481 30.481 0 01-7.245.832q-10.41.001-14.949-5.245zm-157.729 3.954a2.724 2.724 0 01-1.041-1.624 19.07 19.07 0 00-2.415-5 14.683 14.683 0 00-4-3.664 18.534 18.534 0 00-2.249 1.749 22.723 22.723 0 01-2.373 1.791 3.5 3.5 0 01-1.874.541 5.089 5.089 0 01-4.081-2.248 7.617 7.617 0 01-1.749-4.747 3.63 3.63 0 011.041-2.748 2.955 2.955 0 011.957-1 5.1 5.1 0 011.749.583 5.609 5.609 0 001.582.583l.833-.167q3-1 13.991-6.412 0-4.581-.167-11.741-3.914 1.332-5.5 1.749a10.037 10.037 0 01-2.416.333 8.668 8.668 0 01-4.829-1.249 31.279 31.279 0 01-5.913-5.746 2.535 2.535 0 01-.666-1.166c0-.167.139-.25.416-.25a3.19 3.19 0 011.125.374 12.245 12.245 0 001.291.542 14.163 14.163 0 003.456 1.04 22.283 22.283 0 004.038.375 14.285 14.285 0 001.832-.084 30.693 30.693 0 006.995-1.915q-.166-8.66-1.749-11.408a5.021 5.021 0 00-2-2.207 25.138 25.138 0 00-3.164-1.457 5.532 5.532 0 00-.916-.333q-.583-.167-.583-.417 0-.333.5-.707a7.59 7.59 0 011.166-.708 10.594 10.594 0 013.414-.75 10.382 10.382 0 014.122.875 12.55 12.55 0 013.289 1.957 3.89 3.89 0 011.166 3 7.021 7.021 0 01-.292 1.874c-.194.694-.321 1.18-.374 1.457a13.362 13.362 0 002.664 2.165 12.7 12.7 0 004 1.665q3.5.751 3.5 2.915a3.625 3.625 0 01-.583 2.248 4.9 4.9 0 01-1.831 1.333q-.333.166-6.162 2.415l-2 .749v2.416q0 3 .167 8.66 6.163-3.081 8.494-4 10.159-3.914 16.655-3.914 5 0 7.786 2.416t2.79 7.244a17.07 17.07 0 01-3.164 9.327 27.716 27.716 0 01-8.036 8.036 17.557 17.557 0 01-9.7 3.206 8.514 8.514 0 01-5.788-1.915 6.682 6.682 0 01-2.207-5.329q0-4.5 4.247-11.075.749-1 1.083-1a.294.294 0 01.333.333 8.032 8.032 0 01-.832 2.165 20.6 20.6 0 00-1.041 3.123 13.643 13.643 0 00-.458 3.372q0 4 2.831 4 2.915 0 6.7-2.623a26.723 26.723 0 006.5-6.37q2.707-3.748 2.706-6.829 0-5.079-5.829-5.08t-14.324 4.331a67.614 67.614 0 00-8.493 5q.166 2.5.166 3.5.329 6.329.333 6.829a28.574 28.574 0 01-.333 4.538 9.673 9.673 0 01-.75 2.79 6.464 6.464 0 01-1.874 1.915 3.829 3.829 0 01-1.79.833 2.521 2.521 0 01-1.372-.464zm-4.456-12.7l-1.582 1.253q1.5.833 3.622 1.749a10.477 10.477 0 002.624.916q.917 0 1-1.249.167-1.166.167-6.995-.751.496-5.833 4.327zm9.661-29.062l.417-.25a4.484 4.484 0 01.915-.5 2.855 2.855 0 00.875-.542.963.963 0 00.292-.707 2.5 2.5 0 00-.5-1.333 18.326 18.326 0 00-1.75-2.331q-.25 2.498-.249 5.664zm207.38 28.063a13.525 13.525 0 01-.622-4.58 5.019 5.019 0 01.247-1.79 10.05 10.05 0 011.168-1.874c.167-.278.4-.625.707-1.041s.678-.986 1.124-1.707q3.414-5.5 6.077-10.659a83.635 83.635 0 004.664-10.909 8.4 8.4 0 01-1.332.084 9.3 9.3 0 01-6.663-2.291 16.045 16.045 0 01-3.581-4.788 3.4 3.4 0 01-.5-1.5c0-.277.112-.416.333-.416s.614.277 1.166.833a8.938 8.938 0 003.123 1.624 13.193 13.193 0 004.041.625 31.7 31.7 0 005.161-.749 26.8 26.8 0 00.336-3.415 6.712 6.712 0 00-1.751-5.08 9.637 9.637 0 00-1.83-1.249q-1.085-.583-1.085-.916 0-.416.749-.707a5.642 5.642 0 012-.292 10.759 10.759 0 013.412.583q4 1.332 4.747 4.163a1.981 1.981 0 01.707-.041 3.225 3.225 0 00.877-.042q1.33 0 2.582-.124c.831-.084 1.444-.125 1.831-.125H644a3.706 3.706 0 011.666.333 2.764 2.764 0 011.291 1 2.571 2.571 0 01.461 1.5 4.148 4.148 0 01-.791 2.331 9.545 9.545 0 01-1.793 2 42.936 42.936 0 01-4.786 2.706 44.308 44.308 0 01-5.54 2.29q-2.248 6.161-6.7 17.9t-5.628 14.575a5.765 5.765 0 01-2.082 2.54 4.831 4.831 0 01-2.665.874 2.293 2.293 0 01-2.29-1.665zm21.863-44.3a15.479 15.479 0 01-.419 3.164 13.619 13.619 0 001.249-.583q1.582-.915 1.582-1.582c0-.333-.33-.666-1-1l-1.415-.666zM9.537 150.527a2.886 2.886 0 01-1.291-1.582 7.029 7.029 0 01-.167-1.166q0-2.5 2.914-3.913a11.328 11.328 0 004.664-3.248 8.785 8.785 0 002.332-5.163l1.249.084a19.165 19.165 0 01.582 4.663 12.5 12.5 0 01-1.582 6.5 9.127 9.127 0 01-3.83 3.748 5.884 5.884 0 01-2.665.666 4.167 4.167 0 01-2.207-.59zm51.089-1a21.11 21.11 0 00-3.789-7.078 33.607 33.607 0 00-6.12-6.246l.749-.666a32.522 32.522 0 018.661 2.581 60.882 60.882 0 003.082-6.995h-50.8a13.832 13.832 0 01-1.332 5.912A8.916 8.916 0 018 140.701a4.747 4.747 0 01-2.831.833 3.865 3.865 0 01-2.581-.916 3.189 3.189 0 01-1.083-2.581 3.423 3.423 0 01.791-2.165 6.431 6.431 0 012.04-1.665 11.188 11.188 0 004.081-4 10.288 10.288 0 001.666-5.912h1.249a25.864 25.864 0 011 4.414h9.077a5.219 5.219 0 01-1.915-1.083 12.87 12.87 0 00-1.291-4.872 20.617 20.617 0 00-2.706-4.455l.75-.5-4.5.083-4.5-.083-.25-1.582q13.491-.917 28.855-3.206a242.2 242.2 0 0024.608-4.705q5.663 5.662 5.663 6.828c0 .333-.472.446-1.416.333l-2.248-.416q-5.162.666-8.743.915 4.913 2.086 6.828 3.164t1.915 1.582q0 .333-.75.5l-1.5.334a57.547 57.547 0 01-9.077 7.161h12.075l1.915-2.082c.222-.22.611-.625 1.165-1.208s1-.874 1.333-.874 1.055.513 2.165 1.54a44.354 44.354 0 013.164 3.248q1.5 1.71 1.5 2.29a2.013 2.013 0 01-1.124.666 12.087 12.087 0 01-1.957.25 42.255 42.255 0 01-4.789 3.289 45.219 45.219 0 01-5.454 2.873 12.991 12.991 0 014.247 3.748 7.163 7.163 0 011.416 4 4.274 4.274 0 01-.958 2.873 3.079 3.079 0 01-2.456 1.124 5.064 5.064 0 01-2.748-.918zm-44.219-31.726a16.639 16.639 0 017.2 3.206 5.751 5.751 0 012.29 4.206 3.617 3.617 0 01-.707 2.207 3.423 3.423 0 01-1.791 1.291h24.65a57.411 57.411 0 002.956-6.413 40.205 40.205 0 001.958-6.245q-7.995.749-19.4 1.332a14.324 14.324 0 015.829 3.415 6.047 6.047 0 011.832 4.081 3.839 3.839 0 01-1.04 2.706 3.333 3.333 0 01-2.54 1.124 4.334 4.334 0 01-3-1.333 15.526 15.526 0 00-.958-5.08 22.963 22.963 0 00-2.29-4.829q-9.996.332-14.989.332zm430.246 24.315a22.363 22.363 0 00-3.914-4.163 6.3 6.3 0 00-3.914-1.332 4.663 4.663 0 00-2.29.625 9.166 9.166 0 00-2.039 1.54 13.5 13.5 0 00-1.333.958 2.068 2.068 0 01-.916.542q-.416 0-.416-.5a1.8 1.8 0 01.416-.916 17.913 17.913 0 015.5-5.663 11.944 11.944 0 016.162-1.665 10.936 10.936 0 015.038 1.166 9.6 9.6 0 013.581 3 6.555 6.555 0 011.291 3.83 3.922 3.922 0 01-1.165 2.956 3.929 3.929 0 01-2.831 1.124 3.657 3.657 0 01-3.17-1.503zm-407.262.084a14.086 14.086 0 00-3.082-4.747 23.008 23.008 0 00-4.663-3.914l.666-.749q6.412-.081 9.493 1.915t3.082 4.58a3.557 3.557 0 01-.916 2.5 3.12 3.12 0 01-2.416 1 4.527 4.527 0 01-2.164-.584zm227.759-65q4.5-8.161 6.08-22.65.25-2.745.25-6.079a61.9 61.9 0 00-.916-11.492q5.659.917 7.911 1.541t2.248 1.124q0 .333-.666.75l-1.5.832a106.954 106.954 0 01-1.417 12.735q2.665 6.661 6.914 9.909V48.548a108.89 108.89 0 00-1.085-17.071 79.044 79.044 0 017.952 2.373c1.472.582 2.21 1.071 2.21 1.457 0 .28-.224.555-.669.832l-1.413.916v10.162h2.912l1.831-3c.222-.333.514-.775.877-1.332s.653-.969.875-1.249a.9.9 0 01.666-.417q.5 0 2.2 1.541a40.289 40.289 0 013.208 3.248c1 1.138 1.5 1.9 1.5 2.29-.224.89-.916 1.332-2.082 1.332H293.05v17.654q5 1.335 15.153 1.332 26.9 0 35.061-.249v1.083a4.972 4.972 0 00-3.166 2.206 8.689 8.689 0 00-1.249 4.123h-30.9a51.254 51.254 0 01-13.9-1.578 19.832 19.832 0 01-9.244-5.621q-3.746-4.039-6.248-11.616-2.994 13.823-10.49 21.151zm-109.092-.374a26.421 26.421 0 01-4.747-2.957 48.952 48.952 0 01-13.865-17.987 91.334 91.334 0 01-7.121-25.315l-17.488 2.082-.915-2.332 18.07-2.082a206.262 206.262 0 01-1.5-26.4q10.072.915 10.076 2.082 0 .332-.667.749l-1.416 1v2.581a144.517 144.517 0 001.083 19.069l12.825-1.5 1.915-3.331q.333-.5.874-1.457a14.168 14.168 0 01.916-1.457q.375-.5.708-.5a10.281 10.281 0 012.831 1.292 41.4 41.4 0 014.33 2.748q2 1.457 2 2.04-.166 1.415-2.082 1.665l-24.067 2.831q3.577 26.148 17.737 36.307a2.3 2.3 0 001.5.833q.583 0 1.165-1.166a41.177 41.177 0 002.207-4.371q1.292-2.873 2.29-5.621l.916.167-1.749 13.407q2.665 4 2.665 5.746a2.553 2.553 0 01-.583 1.582 4.064 4.064 0 01-3.415 1.5 10.517 10.517 0 01-4.492-1.211zm-54.962.708a1.436 1.436 0 01-.666-1.166q.329-4.913.582-9.535t.333-12.117v-22.65a73.517 73.517 0 01-11.408 12.325l-1.083-.749q7.075-10.16 12.908-25.732a89.282 89.282 0 002.79-9.327A47.693 47.693 0 00108.01.001q11.493 3.83 11.492 4.913 0 .25-.75.583l-1.5.582a142.7 142.7 0 01-8.078 17.155q3.748 2.581 3.748 3.58 0 .417-.75.75l-1.249.583V55.71q.167 10.326.667 19.569a7.861 7.861 0 01-2.749 1.791 9.764 9.764 0 01-4.081.958 2.7 2.7 0 01-1.66-.5zm-52.131-2.707a5.218 5.218 0 00-1.249-2.123 7.332 7.332 0 00-2.706-1.624 27.439 27.439 0 00-4.622-1.124V68.79q9 .583 10.66.583a2.28 2.28 0 001.457-.333 1.635 1.635 0 00.375-1.249v-23.4H40.972a84.384 84.384 0 00-12.491 1.166l-2.165-4.247q4.578.5 11.076.666H54.88a68.937 68.937 0 00-.583-9.993 75.179 75.179 0 017.7 2.248q2.124.833 2.123 1.416 0 .25-.582.666l-1.249.833v4.829h2.165l1.749-2.665a14.88 14.88 0 00.915-1.249 10.883 10.883 0 01.833-1.124.923.923 0 01.666-.374 5.758 5.758 0 012.207 1.374 32.492 32.492 0 013.206 2.956q1.5 1.582 1.5 2.165-.25 1.332-2.165 1.332H62.29v23.811a14.23 14.23 0 01-.75 5.08 6.126 6.126 0 01-3.04 3.12 19.09 19.09 0 01-6.871 1.625 18.426 18.426 0 00-.663-3.205zm481.278-.374l-1.743-2.672q-2.415-3.91-4.331-6.453a28.093 28.093 0 00-4.663-4.789c-.278-.221-.611-.469-1-.749s-.582-.5-.582-.667c0-.277.22-.416.666-.416a14.859 14.859 0 011.5.167 38.231 38.231 0 017.287 2.706 33.373 33.373 0 017.744 4.954q3.372 2.919 3.372 6.246a4.727 4.727 0 01-1.249 3.5 3.906 3.906 0 01-2.831 1.249q-2.17-.001-4.169-3.083zM206.2 70.532a9.185 9.185 0 01-4.539-8.16 11.394 11.394 0 013.456-8.036 45.345 45.345 0 019.618-7.286q.084-.833.084-2.581a14.747 14.747 0 00-1.291-6.537q-1.291-2.624-3.04-2.623-2.415 0-4.7 2.831a62.11 62.11 0 00-4.955 7.328l-1.249 2.082q-.25.417-1.332 2.04a12.382 12.382 0 01-2.04 2.457 2.98 2.98 0 01-1.958.832 3.133 3.133 0 01-2.748-1.5 6.3 6.3 0 01-1-3.58 5.848 5.848 0 01.75-2.915 11.71 11.71 0 012.416-2.831L195 40.801a46.768 46.768 0 006.246-6.745 46.425 46.425 0 006.5-12.824 43.6 43.6 0 01-6.329.583 9.5 9.5 0 01-5.08-1.333 29.622 29.622 0 01-5.08-4.246 1.729 1.729 0 01-.333-.667c0-.111.137-.167.417-.167a4.856 4.856 0 011.166.25 19.413 19.413 0 006.5 1.249 35.2 35.2 0 004.456-.375 34.14 34.14 0 005.7-1.291 25.922 25.922 0 00.417-4.081 5.69 5.69 0 00-2.749-5.246 1.952 1.952 0 01-.666-.416.8.8 0 01-.25-.583 2.1 2.1 0 01.5-1.416 1.868 1.868 0 011.5-.583 16.443 16.443 0 013.706.5 6.939 6.939 0 013.039 1.332 3.11 3.11 0 01.666 2.248 13.6 13.6 0 01-.166 1.666 7.9 7.9 0 003.581.832 7.587 7.587 0 002-.25 13.838 13.838 0 011.832-.167q2.082 0 2.082 1.749a5.313 5.313 0 01-1.416 3.373 13.652 13.652 0 01-4 3.122 33.235 33.235 0 01-7.245 2.915 102.306 102.306 0 01-5.58 13.406 8.358 8.358 0 014-1.082q7.5 0 9.493 7.745a41.867 41.867 0 012.957-5.913 30.749 30.749 0 013.622-4.747 28.26 28.26 0 016.121-4.872 13.993 13.993 0 017.286-2.123 8.261 8.261 0 015.7 2.04 6.848 6.848 0 012.291 5.371 8.625 8.625 0 01-3.706 7.036 36.549 36.549 0 01-9.368 5.038q-8.078 2.831-13.325 4.913a29.76 29.76 0 000 4.5 50.051 50.051 0 01.167 5.08 5.444 5.444 0 01-1.249 3.206 3.373 3.373 0 01-2.665 1.457 3.61 3.61 0 01-2.665-1.208 3.99 3.99 0 01-1.165-2.873q0-.666.333-4.163l.25-2.831q-9.577 5-9.577 10.576 0 5.746 11.159 5.746a29.1 29.1 0 004.788-.333q1.958-.329 4.872-1a21.142 21.142 0 015.246-.916 5.508 5.508 0 013.289.874 2.858 2.858 0 011.208 2.457q0 3.081-4.955 4.455a40.235 40.235 0 01-10.784 1.374q-9 .004-13.537-2.911zm26.48-43.431a17.886 17.886 0 00-4.872 4.039 25.5 25.5 0 00-3.747 5.538 22.843 22.843 0 00-2.165 6.537l1-.5q7.579-3.831 10.16-5.413a19.7 19.7 0 005.62-4.456 7.246 7.246 0 002.04-4.371 2.557 2.557 0 00-.832-2 3.633 3.633 0 00-2.5-.75 9.993 9.993 0 00-4.704 1.376zm-18.612-13.782l1.915-1.083q.583-.332.583-.666t-.666-.75l-1-.666zm155.351 58.587a11.131 11.131 0 01-1.957-2.706 6.2 6.2 0 01-.833-2.831 4.592 4.592 0 01.958-2.79 26.529 26.529 0 012.208-2.578q1.249-1.291 1.749-1.79l7.745-7.744q13.908-13.74 17.987-17.987c.22-.22.583-.569 1.083-1.04a8.155 8.155 0 001.124-1.249 1.686 1.686 0 00.375-.875.927.927 0 00-.375-.666 1.96 1.96 0 00-1.291-.333 10.506 10.506 0 00-6.246 1.957 34.769 34.769 0 00-5.413 4.872 19.884 19.884 0 01-2.415 2.373 3.663 3.663 0 01-2.249.625 6.763 6.763 0 01-3.247-1.124 22.586 22.586 0 01-3.748-2.79 6.178 6.178 0 01-2.415-4.58 5 5 0 01.374-1.915c.25-.608.6-.915 1.041-.915a1.679 1.679 0 011 .5 10.386 10.386 0 00.833.666 7.757 7.757 0 005.163 2.332 10.459 10.459 0 003.83-.916 66.891 66.891 0 018.411-3.082 28.445 28.445 0 017.744-1.415 8.187 8.187 0 013.83.958 8.048 8.048 0 013.082 2.956 3.819 3.819 0 011.083 2.665 2.876 2.876 0 01-1.166 2.29 23.291 23.291 0 01-3.664 2.29q-3.248 1.832-3.581 2.082a94.425 94.425 0 00-14.406 11.242l-2.165 2.248a17.536 17.536 0 019.493-2.831 6.747 6.747 0 014.414 1.5 5.334 5.334 0 011.874 2.581 26.186 26.186 0 01.958 4.664 29.3 29.3 0 00.75 5.037 2.652 2.652 0 001.333 1.791 8.685 8.685 0 003.247.416 54.822 54.822 0 007.911-1.082 47.237 47.237 0 015.913-.833 4.977 4.977 0 013.539 1.208 3.8 3.8 0 011.291 2.873q0 3.164-4.164 4.081a50.575 50.575 0 01-10.576.916 21.282 21.282 0 01-7.662-1.124 7.763 7.763 0 01-4.2-3.873 19.934 19.934 0 01-1.625-7.744 12.168 12.168 0 00-1.249-5.121q-1-1.7-3.747-1.707-3.164 0-7.578 3.5a22.862 22.862 0 00-5.247 5.7 38.247 38.247 0 00-3.914 6.62 15.317 15.317 0 01-1.54 2.873 2.017 2.017 0 01-1.625.958 3.1 3.1 0 01-2.045-1.133zm99.493-6.2q-4.539-5.246-4.539-16.239a37.387 37.387 0 014.747-18.778 39.7 39.7 0 0111.992-13.366 7.057 7.057 0 00-1.166.167 42.531 42.531 0 00-8.786 2.624 100.3 100.3 0 00-11.283 5.2q-1.75 1.165-3.248 2.248a20.1 20.1 0 01-3.539 2.332 7.8 7.8 0 01-3.456.749 6.443 6.443 0 01-3.748-1.373 15.786 15.786 0 01-3.373-3.29 12.355 12.355 0 01-1.957-3.415 2.074 2.074 0 01-.25-1.082c0-.5.221-.75.667-.75a2.106 2.106 0 011 .333q1.166.583 2.082.958a5.454 5.454 0 002.082.374 10.4 10.4 0 001.666-.167 21.507 21.507 0 002.373-.707q1.874-.625 3.456-1.124 8.578-2.915 15.947-5.08a100.341 100.341 0 0113.616-3.082 29.747 29.747 0 005.5-1.582q1.415-.5 2.873-.915a9.872 9.872 0 012.706-.417 10.561 10.561 0 015.913 1.874q2.827 1.874 2.831 4.2a2.925 2.925 0 01-.833 2.165 2.824 2.824 0 01-2.082.832 26.961 26.961 0 01-3.914-.5 29.4 29.4 0 00-5.579-.666 21.31 21.31 0 00-6.745 1.165q-3.664 1.332-6.538 6.537a46.875 46.875 0 00-4.455 11.825 51.354 51.354 0 00-1.582 11.784 29.761 29.761 0 00.958 8.493 7.537 7.537 0 003.123 4.414 11.241 11.241 0 005.913 1.332l2.248-.167a31.939 31.939 0 014-.333 9.388 9.388 0 015.122 1.208 3.547 3.547 0 011.874 3.039q0 2.749-3.415 3.581a30.486 30.486 0 01-7.245.833q-10.417.009-14.955-5.239zM2.457 69.869a1.464 1.464 0 01-.625-1.165q.333-4.914.583-9.535t.333-12.117V22.07A108.916 108.916 0 001.667 5.001l9.244 3.747h7.079l1.665-2.082a8.451 8.451 0 00.791-.958 5.819 5.819 0 01.791-.916 1.013 1.013 0 01.666-.292 6.772 6.772 0 012.374 1.333 31.866 31.866 0 013.455 2.831q1.58 1.5 1.582 2.082a5.619 5.619 0 01-3.331 1.749v31.644q.167 10.325.667 19.569a6.894 6.894 0 01-2.79 1.791 10.107 10.107 0 01-3.956.958q-1.5 0-1.5-1.666l.333-2.165v-1.925H9.91v2.416q.084.832.084 2l.249 2.415a4.236 4.236 0 01-2.082 1.874 8.723 8.723 0 01-4.247.958 2.264 2.264 0 01-1.456-.498zM9.91 58.294h8.827v-22.65H9.91zm0-25.065h8.827V11.161H9.91zM308.2 65.286a1.761 1.761 0 01-.414-1.165q.331-3.5.5-8.827v-5.327a108.979 108.979 0 00-1-16.158l8.663 3.665h13.492l1.665-2.332c.167-.22.428-.567.791-1.041a11.612 11.612 0 01.872-1.04.971.971 0 01.669-.333 6.642 6.642 0 012.372 1.457 34.669 34.669 0 013.5 3.123q1.621 1.669 1.625 2.25a6.247 6.247 0 01-3.164 1.663v6.995q.162 8.494.5 13.407a6.214 6.214 0 01-2.7 2 9.428 9.428 0 01-4.123 1.083c-1 0-1.5-.553-1.5-1.666q0-.163.333-2.082v-1.915h-14.747v1.5q.081.837.125 1.541a4.172 4.172 0 00.125.958q-.17.836-2.248 1.79a10.039 10.039 0 01-4.247.958 1.346 1.346 0 01-1.089-.504zm7.331-8.66h14.74V39.888h-14.737zm-276.559 5.5a23.24 23.24 0 00-2.332-7.328 42.276 42.276 0 00-4.33-7.078l.749-.5q6.828 2 10.035 5.246t3.206 6.413a4.721 4.721 0 01-1.165 3.289 3.676 3.676 0 01-2.831 1.291 5.334 5.334 0 01-3.33-1.337zm263.069-27.313a40.434 40.434 0 003.914-3.415h-23.734a84.837 84.837 0 00-12.488 1.166l-2.082-4.164q4.577.5 11.075.667h5.413V16.159h-4.247a29.744 29.744 0 00-7.328 1.165l-2.082-4.246q3.826.5 9.324.666h4.333a89.331 89.331 0 00-.833-13.49 78.636 78.636 0 017.911 2.248q2.165.833 2.165 1.416c0 .224-.2.472-.583.752l-1.332.831v8.244h3.333l1.832-2.749q.333-.416.874-1.207a8.84 8.84 0 01.916-1.166 1.057 1.057 0 01.71-.374 6.189 6.189 0 012.29 1.416 35.775 35.775 0 013.331 3q1.54 1.585 1.541 2.165-.333 1.332-2.082 1.332h-12.744V29.07h4.832l4.082-5.746q4.494 3.834 7.162 6.413a28.031 28.031 0 005.825-10.167 52.351 52.351 0 002-11.659H311.7a21.924 21.924 0 00-6.329 1.165l-2.165-4.163q4.577.5 11.076.669h17.572l1.668-2.167a12.407 12.407 0 00.833-.958 12.6 12.6 0 01.831-.958.968.968 0 01.668-.333 5.542 5.542 0 012.165 1.374 28.614 28.614 0 013.081 2.961q1.412 1.582 1.413 2.164a4.188 4.188 0 01-3 1.249 93.221 93.221 0 01-1.5 14.7q-1.083 4.959-3.416 6.7-2.915 2.333-8.076 2.332 0-3.58-1.332-4.913-1.249-1.328-6.248-2.415l.085-1.249q6.245.586 8.661.583a3.431 3.431 0 002.329-.667q1.748-1.748 2.5-16.071h-9.487a37.562 37.562 0 01-5.2 15.863q-4.292 7.04-14.783 12.2zM26.067 27.901q4.576.5 11.075.666h7.911V16.401h-5.246a46.5 46.5 0 00-9.327 1.165l-2.165-4.247q4.581.5 11.075.666h5.663a85.221 85.221 0 00-.832-13.24 70.2 70.2 0 018.036 2.207q2.29.873 2.29 1.457 0 .416-.667.832l-1.5.916v7.827h7.911l1.915-2.914c.278-.389.595-.847.958-1.374a8.54 8.54 0 01.916-1.165 1.05 1.05 0 01.708-.374 6.568 6.568 0 012.373 1.5 38.171 38.171 0 013.5 3.164q1.624 1.666 1.624 2.248-.25 1.332-2 1.333h-17.9v12.157h10.159l2-3q.333-.5.958-1.373a15.77 15.77 0 011-1.291 1.02 1.02 0 01.708-.417 7.021 7.021 0 012.457 1.541 41.5 41.5 0 013.664 3.247c1.136 1.138 1.707 1.9 1.707 2.29-.222.888-.947 1.332-2.165 1.332H40.729a84.493 84.493 0 00-12.491 1.165zm353.887-6.079c0-.167.222-.442.666-.833q1.75-1.328 8.578-5.912c.555-.333.833-.553.833-.666q0-.25-.833-.832a15.509 15.509 0 01-3.83-3.415 12.761 12.761 0 01-2.04-3.705 9.553 9.553 0 01-.542-2.706c0-.442.084-.667.25-.667.111 0 .345.183.707.542s.6.6.708.707a25.113 25.113 0 003.123 2.207 22 22 0 003.705 1.874 14.558 14.558 0 004.58 1 9.177 9.177 0 001.666-.249 9.315 9.315 0 011.582-.25 4.988 4.988 0 012.54.916 9.2 9.2 0 012.457 2.248 4.251 4.251 0 011 2.5q0 1.832-2.915 2.332c-.5.055-1.235.113-2.207.167s-1.873.139-2.706.249a40.679 40.679 0 00-9.577 2.165q-5.079 1.669-6.662 2.415a1.921 1.921 0 01-.75.25.3.3 0 01-.333-.341zm-227.642-6.246a19.592 19.592 0 00-3.206-5.912 35 35 0 00-4.955-5.413l.75-.583q7.078.749 10.451 3.331t3.373 5.5a3.8 3.8 0 01-1.041 2.748 3.585 3.585 0 01-2.706 1.083 5.094 5.094 0 01-2.666-.758z" opacity=".9"/></g></svg>