<svg xmlns="http://www.w3.org/2000/svg" width="35.558" height="30.29"><path data-name="合体 13" d="M1.422 30.04A1.173 1.173 0 01.25 28.869V1.422A1.173 1.173 0 011.423.251H23.84a1.173 1.173 0 011.172 1.171v8.457a.555.555 0 01-.556.555.555.555 0 01-.556-.555V1.422a.06.06 0 00-.061-.06H1.422a.06.06 0 00-.062.06v27.447a.061.061 0 00.061.06h22.418a.061.061 0 00.061-.06v-3.818a.555.555 0 01.556-.556.556.556 0 01.556.556v3.818a1.173 1.173 0 01-1.172 1.171zm4.165-6.967a.555.555 0 01-.556-.556.555.555 0 01.556-.556H16.92a.556.556 0 01.556.556.556.556 0 01-.556.556zm18.883 0l-4.427-.018a.576.576 0 01-.574-.576l-.019-4.425a.82.82 0 01.238-.577L29.696 7.469a.669.669 0 01.946 0l4.413 4.412a.671.671 0 010 .945L25.046 22.835a.815.815 0 01-.574.238zm-3.907-4.9l.016 3.771 3.771.015 6.812-6.812-3.787-3.787zm7.6-7.6l3.788 3.787 2.01-2.01-3.787-3.787zM5.591 15.701a.556.556 0 01-.556-.556.556.556 0 01.556-.556h12.792a.556.556 0 01.556.556.556.556 0 01-.556.556zm0-7.372a.555.555 0 01-.556-.556.555.555 0 01.556-.555h14.434a.556.556 0 01.556.555.556.556 0 01-.556.556z" fill="#07182b" stroke="#07182b" stroke-miterlimit="10" stroke-width=".5"/></svg>