<svg xmlns="http://www.w3.org/2000/svg" width="30" height="30"><path data-name="合体 6" d="M2.479 30A2.46 2.46 0 010 27.565V5.174a2.461 2.461 0 012.479-2.435H5.3V1.723A1.741 1.741 0 017.053 0h1.769a1.74 1.74 0 011.754 1.723v1.016h8.849V1.723A1.74 1.74 0 0121.179 0h1.769A1.741 1.741 0 0124.7 1.723v1.016h2.82A2.461 2.461 0 0130 5.174v22.391A2.46 2.46 0 0127.52 30zm-1.025-2.435a1.017 1.017 0 001.025 1.006H27.52a1.017 1.017 0 001.025-1.006V10.551H1.454zm0-22.391v3.949h27.091V5.174a1.017 1.017 0 00-1.025-1.007H24.7v1.014A1.741 1.741 0 0122.948 6.9h-1.769a1.74 1.74 0 01-1.754-1.723v-1.01h-8.849v1.014A1.74 1.74 0 018.822 6.9H7.053A1.742 1.742 0 015.3 5.181V4.167H2.479a1.017 1.017 0 00-1.025 1.007zm19.425-3.451v3.458a.3.3 0 00.3.295h1.769a.3.3 0 00.3-.295V1.723a.3.3 0 00-.3-.294h-1.769a.3.3 0 00-.3.294zm-14.127 0v3.458a.3.3 0 00.3.295h1.77a.3.3 0 00.3-.295V1.723a.3.3 0 00-.3-.294H7.053a.3.3 0 00-.301.294zm14.823 21.849a2.6 2.6 0 112.6 2.555 2.581 2.581 0 01-2.6-2.555zm1.454 0a1.146 1.146 0 101.146-1.125 1.138 1.138 0 00-1.145 1.125zm-10.444 0a2.6 2.6 0 112.6 2.555 2.58 2.58 0 01-2.6-2.555zm1.455 0a1.146 1.146 0 101.146-1.125 1.138 1.138 0 00-1.146 1.125zm-10.445 0a2.6 2.6 0 112.6 2.555A2.58 2.58 0 013.6 23.572zm1.454 0A1.146 1.146 0 106.2 22.447a1.138 1.138 0 00-1.15 1.125zm16.526-8.021a2.6 2.6 0 112.6 2.554 2.58 2.58 0 01-2.6-2.554zm1.454 0a1.146 1.146 0 101.146-1.126 1.137 1.137 0 00-1.145 1.126zm-10.444 0a2.6 2.6 0 112.6 2.554 2.579 2.579 0 01-2.6-2.554zm1.455 0a1.146 1.146 0 101.146-1.126 1.137 1.137 0 00-1.146 1.126zm-10.445 0A2.6 2.6 0 116.2 18.1a2.579 2.579 0 01-2.6-2.549zm1.454 0A1.146 1.146 0 106.2 14.424a1.137 1.137 0 00-1.15 1.127z" fill="#07182b"/></svg>