<svg xmlns="http://www.w3.org/2000/svg" width="540" height="71" viewBox="0 0 540 71">
  <g id="logo_index" transform="translate(-33.684 -9.846)">
    <path id="前面オブジェクトで型抜き_1" data-name="前面オブジェクトで型抜き 1" d="M8.681,71h0a2.637,2.637,0,0,0-1.526-.391c-.208,0-.417.011-.62.021s-.408.021-.605.021A1.956,1.956,0,0,1,3.854,69.3a6.646,6.646,0,0,0,.248-2.19H2.122V60.658c-.484-.068-.347-1.5-.2-3.006A13.433,13.433,0,0,0,2,54.331a.425.425,0,0,0,.123-.244v-7.3a20.326,20.326,0,0,1-1.113-3.893,1.967,1.967,0,0,0,.247-1.46,31.577,31.577,0,0,0-.139-3.7,23.954,23.954,0,0,1,.016-5.543,3.077,3.077,0,0,1-.385-1.734,2.584,2.584,0,0,0-.481-1.794A7.5,7.5,0,0,1,.39,24.279l-.247-.366a14.1,14.1,0,0,1,.349-2.648,10.116,10.116,0,0,0,.27-3.678A10.312,10.312,0,0,1,2,13.572V10.531l-.124-.122a1.215,1.215,0,0,0-.357-1.025c-.047-.063-.095-.128-.137-.192a4.3,4.3,0,0,0,.351-2.323C1.7,5.671,1.662,4.54,2.988,3.96a7.6,7.6,0,0,0,1.967.253,15.035,15.035,0,0,0,5.952-1.591.544.544,0,0,1-.02-.529c.127-.194.453-.284,1.025-.284a17.6,17.6,0,0,1,1.784.142l.08.009a19.394,19.394,0,0,0,1.988.151,3.862,3.862,0,0,0,.958-.1,1.993,1.993,0,0,0,1.264.407,5.777,5.777,0,0,0,1.055-.131l.023,0a5.431,5.431,0,0,1,.991-.127,1.577,1.577,0,0,1,1.368.708,17.042,17.042,0,0,0,2.906-.912,17.02,17.02,0,0,1,2.91-.913,1.391,1.391,0,0,0,.992.41A1.556,1.556,0,0,0,28.6,1.4c.186.008.379.012.576.012.931,0,1.868-.089,2.774-.175l.027,0c.917-.087,1.864-.177,2.814-.177a11.562,11.562,0,0,1,2.346.222,2.346,2.346,0,0,1,1.595-.44A1.993,1.993,0,0,0,40.357.31,4.7,4.7,0,0,1,42.086,0a6.156,6.156,0,0,1,2.23.432l.371-.244a10.876,10.876,0,0,1,2.4.38,9.989,9.989,0,0,0,2.178.353A2.75,2.75,0,0,0,50.132.8,7.567,7.567,0,0,1,53.94,2.075c.332.186.676.378,1.019.547l.247-.244a.82.82,0,0,0,.2.024,1.4,1.4,0,0,0,.918-.511,2.635,2.635,0,0,0,1.525.391c.208,0,.417-.011.62-.021h.005c.2-.01.4-.021.6-.021A1.957,1.957,0,0,1,61.145,3.6a3.328,3.328,0,0,1-.062.547,3.327,3.327,0,0,0-.062.547,1.777,1.777,0,0,1,.742,1.1,5.326,5.326,0,0,1-.4,1.8q-.046.134-.094.272a24.264,24.264,0,0,0,1.238,4.258.6.6,0,0,1,.284-.093.265.265,0,0,1,.2.091c.307.338.186,1.589.058,2.914A12.045,12.045,0,0,0,63,18.438a3.428,3.428,0,0,0-.254,2.555c.15.953.292,1.852-.488,2.556a23.754,23.754,0,0,0,.867,3.227A23.79,23.79,0,0,1,63.991,30a1.879,1.879,0,0,0-.248,1.46,31.649,31.649,0,0,0,.139,3.7,23.986,23.986,0,0,1-.015,5.544,3.077,3.077,0,0,1,.385,1.734,2.584,2.584,0,0,0,.481,1.794,7.508,7.508,0,0,1-.123,4.38l.247.365a14.1,14.1,0,0,1-.349,2.648,10.12,10.12,0,0,0-.27,3.679,8.775,8.775,0,0,1-1.015,3.766c-.158.356-.322.724-.469,1.1v.121a4.028,4.028,0,0,0-.32,2.247,3.061,3.061,0,0,1-.67,2.62,3.725,3.725,0,0,1-1.98,2.677,9.44,9.44,0,0,1-1.98-.608H53.474c-.062.212-.354.312-.919.312a16.984,16.984,0,0,1-1.74-.144l-.1-.011a18.765,18.765,0,0,0-2.01-.154,3.7,3.7,0,0,0-1.048.119.163.163,0,0,1-.124-.061.163.163,0,0,0-.124-.061H40.6c-.331.108-.67.23-1,.348a16.814,16.814,0,0,1-2.468.746,1.388,1.388,0,0,0-.992-.41,1.552,1.552,0,0,0-.369.045c-.188-.008-.385-.012-.585-.012-.929,0-1.864.089-2.768.174l-.028,0c-.914.088-1.859.178-2.816.178a11.6,11.6,0,0,1-2.342-.221,2.346,2.346,0,0,1-1.594.439,2,2,0,0,0-1.623.534,4.7,4.7,0,0,1-1.728.31,6.158,6.158,0,0,1-2.231-.432l-.371.244a13.658,13.658,0,0,1-2.19-.4,11.685,11.685,0,0,0-2.623-.416,4.506,4.506,0,0,0-.878.081.427.427,0,0,1-.062.182.429.429,0,0,0-.062.183,2.723,2.723,0,0,1-2.029.8,2.441,2.441,0,0,0-2.054.9.82.82,0,0,0-.2-.024A1.4,1.4,0,0,0,8.681,71ZM32.872,54.22h0l11.444,8.244a44.022,44.022,0,0,1,4.207-17.443c2.451-4.777,5.681-8.993,9.776-13.854A38.533,38.533,0,0,0,47.374,36.7a17.022,17.022,0,0,0-13.2-25.871L32.933,6.747,31.7,10.83A17.022,17.022,0,0,0,18.544,36.784a36.96,36.96,0,0,0-11.1-5.617c4.075,4.995,7.381,9.187,9.775,13.854a35.291,35.291,0,0,1,2.939,8.072,53.049,53.049,0,0,1,1.269,9.371l11.445-8.244Zm0-.188v0a38.972,38.972,0,0,0-6.939-10.695,16.925,16.925,0,0,0,7,1.512,16.707,16.707,0,0,0,6.8-1.432A38.937,38.937,0,0,0,32.873,54.03Zm.061-11.287a10.889,10.889,0,0,1-7.78-3.247,11.179,11.179,0,0,1,0-15.726,10.89,10.89,0,0,1,15.56-.046,11.179,11.179,0,0,1,0,15.726A10.861,10.861,0,0,1,32.933,42.745Z" transform="translate(33.684 9.846)" fill="#e5e5e5"/>
    <g id="グループ_15" data-name="グループ 15" transform="translate(121.006 19.653)">
      <g id="グループ_12" data-name="グループ 12" transform="translate(157.176 33.418)">
        <path id="パス_5" data-name="パス 5" d="M234.019,64.277a8.6,8.6,0,0,1-.375-1l-.125-1.873V49.92l.125-1.873c.125-.5.125-.749.375-1a1.279,1.279,0,0,1,.749-.624V46.3H229.4v.125a1.279,1.279,0,0,1,.749.624,8.612,8.612,0,0,1,.375,1l.125,1.873V61.406l-.125,1.873a8.613,8.613,0,0,1-.375,1,1.835,1.835,0,0,1-.749.624v.125h5.368V64.9A3.31,3.31,0,0,1,234.019,64.277Z" transform="translate(-229.4 -45.551)" fill="#e5e5e5"/>
        <path id="パス_6" data-name="パス 6" d="M243.812,63.852l-1-.874-.874-.874-1.748-2.247L236.2,54.489c.125,0,6.617-8.364,6.617-8.364l.125-.125h-5.493l.25.125c.5.375.874.749.874,1.124a2.493,2.493,0,0,1-.374,1l-1,1.5L233.2,54.989l.749.874,2.372,3.371,3,3.87a3.767,3.767,0,0,0,1.623,1.373,4.169,4.169,0,0,0,1.873.375l3-.125-.125-.125Z" transform="translate(-228.456 -45.625)" fill="#e5e5e5"/>
        <path id="パス_7" data-name="パス 7" d="M266.126,63.578a15.117,15.117,0,0,1-1.248-2.5L258.885,46.1h-4.619v.125c.5.25.874.624.874,1a3.308,3.308,0,0,1-.375,1.248l-4.994,12.609a17.945,17.945,0,0,1-1.124,2.5,3.088,3.088,0,0,1-1.5,1.248l-.25.125h5.743l-1-.749a.953.953,0,0,1-.25-.624,9.222,9.222,0,0,1,.25-1.5l1.623-4.369h7.116c0,.125,1.623,4.369,1.623,4.369a5.014,5.014,0,0,1,.5,1.623l-.125.5-1,.749h6.492l-.25-.125A3.67,3.67,0,0,1,266.126,63.578Zm-6.492-7.615h-5.618c.125-.125,2.747-6.866,2.871-7.241C257.012,49.1,259.634,55.838,259.634,55.963Z" transform="translate(-225.053 -45.601)" fill="#e5e5e5"/>
        <path id="パス_8" data-name="パス 8" d="M273.619,64.277a8.592,8.592,0,0,1-.374-1l-.125-1.873V49.92l.125-1.873c.125-.5.125-.749.374-1a1.279,1.279,0,0,1,.749-.624V46.3H269v.125a1.279,1.279,0,0,1,.749.624,8.623,8.623,0,0,1,.375,1l.125,1.873V61.406l-.125,1.873c-.125.375-.125.749-.375,1A1.835,1.835,0,0,1,269,64.9v.125h5.368V64.9A1.278,1.278,0,0,1,273.619,64.277Z" transform="translate(-219.562 -45.551)" fill="#e5e5e5"/>
        <path id="パス_9" data-name="パス 9" d="M283.412,63.852l-1-.874-.874-.874-1.748-2.247L275.8,54.489c.125,0,6.617-8.364,6.617-8.364l.125-.125h-5.493l.25.125c.5.375.874.749.874,1.124a2.493,2.493,0,0,1-.375,1l-1,1.5L272.8,54.989l.749.874,2.372,3.371,3,3.87a3.767,3.767,0,0,0,1.623,1.373,4.169,4.169,0,0,0,1.873.375l3-.125-.125-.125Z" transform="translate(-218.618 -45.625)" fill="#e5e5e5"/>
        <path id="パス_10" data-name="パス 10" d="M304.4,64.277a8.59,8.59,0,0,1-.375-1l-.125-1.873V49.92l.125-1.873a8.6,8.6,0,0,1,.375-1,1.834,1.834,0,0,1,.749-.624l.25-.125H299.41l.25.125a1.279,1.279,0,0,1,.749.624,8.591,8.591,0,0,1,.375,1l.125,1.873v9.363l-.125,1.373-.5.874a3.922,3.922,0,0,1-1.748,1.373,5.066,5.066,0,0,1-2.372.5,5.175,5.175,0,0,1-2-.375,4.751,4.751,0,0,1-1.623-1.124,4.22,4.22,0,0,1-.749-1.5,8.962,8.962,0,0,1-.25-2.122V49.92l.125-1.873a4.229,4.229,0,0,1,.375-1,1.279,1.279,0,0,1,.749-.624l.25-.125H287.3v.125a1.279,1.279,0,0,1,.749.624,8.59,8.59,0,0,1,.375,1l.125,1.873V60.157l.25,1.248.375,1a5.436,5.436,0,0,0,2.372,2.372,7.071,7.071,0,0,0,3.62.874,6.926,6.926,0,0,0,5.618-2.372v1.873h4.37l-.25-.125C304.778,64.777,304.528,64.527,304.4,64.277Z" transform="translate(-215.016 -45.551)" fill="#e5e5e5"/>
        <path id="パス_11" data-name="パス 11" d="M321.358,62.454a10.925,10.925,0,0,1-3,.375c-1.623,0-3.62-.125-5.868-.25.125-.25,10.487-16.479,10.487-16.479H310.247c-.125,0-1.5,3.246-1.5,3.246l-.125.25.25-.125a10,10,0,0,1,2.122-1,10.928,10.928,0,0,1,2.5-.25,44.061,44.061,0,0,1,4.494.25c-.125.25-10.487,16.479-10.487,16.479h15.231c.125,0,1.623-3.62,1.623-3.62l.125-.25-.125.125A10.973,10.973,0,0,1,321.358,62.454Z" transform="translate(-209.998 -45.601)" fill="#e5e5e5"/>
        <path id="パス_12" data-name="パス 12" d="M344.826,63.578a15.115,15.115,0,0,1-1.248-2.5L337.585,46.1h-4.619v.125c.5.25.874.624.874,1a3.309,3.309,0,0,1-.375,1.248l-4.994,12.609a17.969,17.969,0,0,1-1.124,2.5,3.089,3.089,0,0,1-1.5,1.248l-.25.125h5.743l-1-.749a.954.954,0,0,1-.25-.624,4.316,4.316,0,0,1,.375-1.5l1.623-4.369h7.116c0,.125,1.623,4.369,1.623,4.369a5.015,5.015,0,0,1,.5,1.623l-.125.5-1,.749H346.7l-.25-.125A3.35,3.35,0,0,1,344.826,63.578Zm-6.492-7.615h-5.618c.125-.125,2.747-6.866,2.871-7.241C335.712,49.1,338.334,55.838,338.334,55.963Z" transform="translate(-205.502 -45.601)" fill="#e5e5e5"/>
        <path id="パス_13" data-name="パス 13" d="M361.457,46.1h-.25l.25.125a2.131,2.131,0,0,1,1.124,1.248,4.605,4.605,0,0,1,.25,2.122V60.582c-.25-.375-10.487-13.358-10.487-13.358l-.624-1h-4.494l1,.874a2.511,2.511,0,0,1,.5,1l.125,1.5v12.11l-.125,1.5a2.511,2.511,0,0,1-.5,1l-1.124.874h5.368l-.874-.749-.375-.624-.25-.874-.125-1.124V50.469c.25.25,9.863,12.484,9.863,12.484a8.826,8.826,0,0,0,1.873,1.873A6.94,6.94,0,0,0,364.7,65.95h.125V49.6l.125-1.5a2.511,2.511,0,0,1,.5-1l1.124-.874h-5.119Z" transform="translate(-200.161 -45.601)" fill="#e5e5e5"/>
        <path id="パス_14" data-name="パス 14" d="M396.8,64.327a8.6,8.6,0,0,1-.375-1l-.125-1.873V49.97a10.925,10.925,0,0,1,.25-2.5,1.772,1.772,0,0,1,1-1.124l.25-.125h-5.868l.25.125a1.279,1.279,0,0,1,.749.624,8.579,8.579,0,0,1,.375,1l.125,1.873v3.87l-10.237-.125.125-3.87.125-1.873c.125-.5.125-.749.375-1a1.278,1.278,0,0,1,.749-.624V46.1H379.2v.125a1.279,1.279,0,0,1,.749.624,8.6,8.6,0,0,1,.374,1l.125,1.873V61.206l-.125,1.873c-.125.375-.125.749-.374,1a1.835,1.835,0,0,1-.749.624v.125h5.368V64.7a1.279,1.279,0,0,1-.749-.624,8.59,8.59,0,0,1-.375-1l-.125-1.873V55.963s9.987.125,10.112.125v5.368l-.125,1.873a4.223,4.223,0,0,1-.375,1,1.278,1.278,0,0,1-.749.624l-.25.125h5.992l-.25-.125C397.3,64.7,396.928,64.577,396.8,64.327Z" transform="translate(-192.186 -45.601)" fill="#e5e5e5"/>
        <path id="パス_15" data-name="パス 15" d="M418.427,48.571a15.6,15.6,0,0,0-2.122-1.5,8.191,8.191,0,0,0-2.622-1,9.736,9.736,0,0,0-2.747-.375,13.147,13.147,0,0,0-5.493,1.248,9.855,9.855,0,0,0-3.87,3.62,9.015,9.015,0,0,0-1.373,5.119,10.008,10.008,0,0,0,1.373,4.994,10.413,10.413,0,0,0,3.745,3.62,10.836,10.836,0,0,0,5.243,1.248,11.435,11.435,0,0,0,5.368-1.373,10.776,10.776,0,0,0,3.87-3.62,9.015,9.015,0,0,0,1.373-5.119,10.654,10.654,0,0,0-.749-3.87A7.9,7.9,0,0,0,418.427,48.571Zm-7.615,14.856a6.351,6.351,0,0,1-2.747-.5,8.462,8.462,0,0,1-2.247-1.623,8.862,8.862,0,0,1-1.248-1.748,6.147,6.147,0,0,1-.749-2.122,13.905,13.905,0,0,1-.25-2.122,8.394,8.394,0,0,1,.5-3,8.482,8.482,0,0,1,1.373-2.372,6.445,6.445,0,0,1,2.372-1.5,7.406,7.406,0,0,1,2.871-.624,6.872,6.872,0,0,1,5.368,2.5,8.959,8.959,0,0,1,1.873,5.618,7.555,7.555,0,0,1-.5,3,7.677,7.677,0,0,1-1.5,2.372,7.083,7.083,0,0,1-2.247,1.5A5.69,5.69,0,0,1,410.812,63.428Z" transform="translate(-186.969 -45.7)" fill="#e5e5e5"/>
        <path id="パス_16" data-name="パス 16" d="M436.282,46.15h-11.86a3.854,3.854,0,0,1-1.373-.25c-.125,0-1.124,3.5-1.124,3.5l-.125.25.125-.125a7.019,7.019,0,0,1,1.623-.874,8.964,8.964,0,0,1,2.122-.25l2.247.125-.125,12.859-.125,1.873a4.223,4.223,0,0,1-.375,1,1.278,1.278,0,0,1-.749.624V65h5.868l-1.124-.874a2.509,2.509,0,0,1-.5-1l-.125-1.5V48.4l.375.125,2-.125a5.787,5.787,0,0,1,1.748.25,1.493,1.493,0,0,1,.874.874l.125.125,1-3.745h-.125Z" transform="translate(-181.603 -45.65)" fill="#e5e5e5"/>
        <path id="パス_17" data-name="パス 17" d="M449.986,62.479a11.24,11.24,0,0,1-3.121.375c-1.124,0-2.247-.125-3.5-.25V55.987h2.5a3.882,3.882,0,0,1,1.373.125,1.664,1.664,0,0,1,.749.624l.125.125V53.491h-.125a2.125,2.125,0,0,1-.874.125h-3.87l.125-5.243a18.523,18.523,0,0,1,2.871-.125,8.964,8.964,0,0,1,2.122.25,3.232,3.232,0,0,1,1.373.874l.125.125V46h-.125l-1,.125H439l.25.125a1.278,1.278,0,0,1,.749.624,8.58,8.58,0,0,1,.375,1l.125,1.873V61.231l-.125,1.873a4.226,4.226,0,0,1-.375,1,1.835,1.835,0,0,1-.749.624v.125h11.86c.125,0,1.373-3.745,1.373-3.745l.125-.25-.25.125A4.51,4.51,0,0,1,449.986,62.479Z" transform="translate(-177.331 -45.625)" fill="#e5e5e5"/>
        <path id="パス_18" data-name="パス 18" d="M468.484,61.156a10.091,10.091,0,0,1-2.5,1.373,8.3,8.3,0,0,1-2.622.375c-1.248,0-2.5-.125-3.87-.25l.125-12.734.125-1.873a1.229,1.229,0,0,1,.375-1,1.278,1.278,0,0,1,.749-.624V46.3H455.5v.125a1.278,1.278,0,0,1,.749.624,8.59,8.59,0,0,1,.375,1l.125,1.873V61.406l-.125,1.873c-.125.375-.125.749-.375,1a1.835,1.835,0,0,1-.749.624v.125h11.61s1.5-3.87,1.373-3.87l.25-.125Z" transform="translate(-173.232 -45.551)" fill="#e5e5e5"/>
      </g>
      <g id="グループ_13" data-name="グループ 13" transform="translate(0 36.289)">
        <path id="パス_19" data-name="パス 19" d="M116.234,48.325H106.122l-1.373-.125-.125.125-1.124,3.5,1.748-1L107,50.7s1.5.125,1.748.125V61.808l-.125,1.623-.25.874-1.124.874h5.992l-1.248-1-.375-.749-.125-1.248V50.947h.25l1.748-.125,1.5.125a1.5,1.5,0,0,1,.624.624l.25.5,1-3.87-.375.125C116.733,48.2,116.234,48.325,116.234,48.325Z" transform="translate(-103.5 -47.95)" fill="#e5e5e5"/>
        <path id="パス_20" data-name="パス 20" d="M129.036,57.238l-1.248-.874-2.372-1.124-2.247-1.124-1-.874-.25-1a1.63,1.63,0,0,1,.874-1.5,3.992,3.992,0,0,1,2.247-.624,5.175,5.175,0,0,1,2,.375,5.236,5.236,0,0,1,1.748,1.124l.375.375V48.5h-.125a13.733,13.733,0,0,0-3.87-.5,9.567,9.567,0,0,0-3.371.5,4.4,4.4,0,0,0-2.247,1.623,4.218,4.218,0,0,0-.749,2.5,3.844,3.844,0,0,0,.375,1.623,5.543,5.543,0,0,0,1,1.373l1.248,1,2.122,1,2.122,1,1,.624a2.2,2.2,0,0,1,.749,1.623,2.014,2.014,0,0,1-.375,1.124,3.186,3.186,0,0,1-1.248.874,3.987,3.987,0,0,1-1.748.375,8.434,8.434,0,0,1-5.243-1.873l-.5-.375.874,3.745,2.372.624,2.247.125a7.6,7.6,0,0,0,5.368-1.873,4.751,4.751,0,0,0,1.124-1.623,5.009,5.009,0,0,0,.375-1.873,3.844,3.844,0,0,0-.375-1.623Z" transform="translate(-99.823 -48)" fill="#e5e5e5"/>
        <path id="パス_21" data-name="パス 21" d="M147.956,64.03l-.25-.874-.125-1.623V51.546l.125-1.623.25-.749,1.124-.874h-5.743l1.124.874.25.874.125,1.623v7.99l-.125,1.124-.375.749a3.9,3.9,0,0,1-1.373,1.124,5.234,5.234,0,0,1-2,.5,3.456,3.456,0,0,1-1.623-.375,2.493,2.493,0,0,1-1.248-1l-.624-1.124-.125-1.873V51.671l.125-1.623.25-.874,1.124-.874H133.1l.5.375.624.5.25.874.125,1.623V60.41l.125,1.124.375,1a4.973,4.973,0,0,0,2.122,2.122,6.911,6.911,0,0,0,3.246.749,6.284,6.284,0,0,0,4.619-1.873v1.5h4.245l-.5-.375Z" transform="translate(-96.147 -47.925)" fill="#e5e5e5"/>
        <path id="パス_22" data-name="パス 22" d="M165.48,48.3h-5.243l.5.375.5.5.25.5a2.874,2.874,0,0,1-.375,1.124s-2.622,3.995-2.871,4.494c-.375-.5-3.5-5.743-3.5-5.743l-.749-1-.874-.25h-.5l-3.121.125,1.623,1.124,1,1.373,4.245,6.866v3.87l-.125,1.623-.25.749-1,1h5.743l-1.124-1.124-.375-.749-.125-1.248v-4.12C159.238,57.663,165.48,48.3,165.48,48.3Z" transform="translate(-92.073 -47.925)" fill="#e5e5e5"/>
        <path id="パス_23" data-name="パス 23" d="M181.328,63.531l-1-2.122L175.086,48.3h-3.995l-.125.375c.375.25.624.5.624.749l-.25,1-4.369,10.861-1,2.122a3.743,3.743,0,0,1-1.248,1.124l-.624.375h5.868l-1.248-.874-.125-.5.25-1.248s1.124-3,1.373-3.62h5.992c.125.25,1.373,3.62,1.373,3.62l.375,1.248-.125.375-1.248.874h6.492l-.624-.375A1.992,1.992,0,0,1,181.328,63.531Zm-5.992-6.741h-4.369c.25-.5,1.873-4.869,2.247-5.618C173.463,52.045,175.211,56.415,175.336,56.789Z" transform="translate(-88.446 -47.925)" fill="#e5e5e5"/>
        <path id="パス_24" data-name="パス 24" d="M204.572,63.631l-.375-1.748-1.5-10.861-.125-.874a1.461,1.461,0,0,1,.624-1.373l-.125-.375H198.58l-.125.874-.375,1s-3,7.74-3.745,9.738c-.375-.874-4.494-10.612-4.494-10.612l-.25-.874H184.6l1,1,.125.624L185.6,51.4l-1.373,10.362-.375,1.873a2.854,2.854,0,0,1-.874,1.248l-.375.375h5.119l-1-.874-.25-.375-.125-.624.125-1.248s1.124-8.739,1.373-10.112c.5,1.248,4.494,10.736,4.494,10.736l.5,1,.375.624.5.5,1,.874s4.744-12.235,5.368-13.608c.125,1.373,1.248,9.738,1.248,9.738l.125,1.373-.25,1.124c-.125.25-.375.375-.749.624l.125.375h5.368l-.5-.375A14.381,14.381,0,0,0,204.572,63.631Z" transform="translate(-83.85 -47.901)" fill="#e5e5e5"/>
        <path id="パス_25" data-name="パス 25" d="M223.077,64.654a5.623,5.623,0,0,1-1.248-1.124l-1-2.122L215.586,48.3h-3.995l-.125.375c.375.25.624.5.624.749l-.25,1-4.37,10.861-1,2.122a3.743,3.743,0,0,1-1.248,1.124l-.624.375h5.868l-1.248-.874-.125-.5.25-1.248s1.124-3,1.373-3.62h5.992c.125.25,1.373,3.62,1.373,3.62l.375,1.248-.125.375-1.248.874h6.492Zm-7.116-7.865h-4.369c.125-.5,1.873-4.869,2.247-5.618C214.088,52.045,215.836,56.415,215.961,56.789Z" transform="translate(-78.384 -47.925)" fill="#e5e5e5"/>
      </g>
      <g id="グループ_14" data-name="グループ 14" transform="translate(0.125)">
        <path id="パス_26" data-name="パス 26" d="M107.969,25.071l.25.125V23.073h-.125A21.144,21.144,0,0,0,103.85,21.7h-.25v2h.125A18.677,18.677,0,0,1,107.969,25.071Z" transform="translate(-103.6 -16.956)" fill="#e5e5e5"/>
        <path id="パス_27" data-name="パス 27" d="M107.969,21.746l.25.125V19.748h-.125A21.09,21.09,0,0,0,103.85,18.5h-.25v1.873h.125A18.678,18.678,0,0,1,107.969,21.746Z" transform="translate(-103.6 -17.751)" fill="#e5e5e5"/>
        <path id="パス_28" data-name="パス 28" d="M108.219,25.2h-1.873v.25a7.245,7.245,0,0,1-2.622,5.868H103.6v2.372l.25-.125a9.079,9.079,0,0,0,4.245-8.115Z" transform="translate(-103.6 -16.087)" fill="#e5e5e5"/>
        <path id="パス_29" data-name="パス 29" d="M119.06,21.645c0-1.623-.874-2.5-2.622-2.5h-2.247V17.9h-2v1.248h-4.619l.25,1.748h4.494v1.248H107.45l.25,1.873h4.744v1.248h-4.619l.125,1.748h4.494v1.248h-4.869l.25,1.873h4.619v1.373H107.2l.25,1.873h4.994v2.372h1.873V33.38h5.618V31.508h-5.618V30.135h5.243V28.262h-5.243V27.013h4.994V23.892h.749V22.02h-.749C119.06,22.02,119.06,21.645,119.06,21.645Zm-1.873,2.372v1.248h-3.121V24.017Zm-1-3.121c.749,0,1,.25,1,.874v.375h-3.121V20.9Z" transform="translate(-102.706 -17.9)" fill="#e5e5e5"/>
        <path id="パス_30" data-name="パス 30" d="M144.057,32.382c0,.5-.25.749-.624.749h-4.37V17.9h-2V33.131h-4.994V18.649h-2V33.131H129.7l.375,2h13.857c1.373,0,2.122-.749,2.122-2.247V18.774h-2Z" transform="translate(-97.116 -17.9)" fill="#e5e5e5"/>
        <path id="パス_31" data-name="パス 31" d="M161.642,31.882h2V30.135h-2V28.761h2V27.013h-2v-1.5h2.247V23.768h-2.122c0-.25.125-1,.125-1h-1.748s-.125.749-.125,1H158.9a9.016,9.016,0,0,0,1.748-3.246h1.373a.331.331,0,0,1,.375.375v2.122h1.748V20.771a1.747,1.747,0,0,0-1.873-2h-1.124a7.039,7.039,0,0,1,.125-.874h-1.873v.125a4.415,4.415,0,0,0-.125.749h-3.5v4.12h1.248a7.838,7.838,0,0,1-1.5,1.373H155.4v2.122a7.392,7.392,0,0,1,.749-.5v7.116h-.375l.375,1.748h7.491V33.006h-2.122C161.642,33.006,161.642,32.132,161.642,31.882Zm-3-11.236a6.331,6.331,0,0,1-1.124,2v-2Zm1.248,11.236v1.5h-1.873v-1.5Zm0-3.121v1.373h-1.873V28.761Zm-1.873-1.748v-1.5h1.873v1.5Z" transform="translate(-90.732 -17.9)" fill="#e5e5e5"/>
        <path id="パス_32" data-name="パス 32" d="M162.475,27.8v.25a12.563,12.563,0,0,1-.375,3.371v2.372l.375-.375a8.5,8.5,0,0,0,1.373-5.243v-.25h-1.373Z" transform="translate(-89.067 -15.441)" fill="#e5e5e5"/>
        <path id="パス_33" data-name="パス 33" d="M164.3,24.991h1.873c1.623,0,1.748.375,1.748.375v.25h2.372V20.871a1.876,1.876,0,0,0-2-2.122h-1.373a4.908,4.908,0,0,0,.25-.749h-2a2.589,2.589,0,0,1-.25.749h-2.247v9.488H162.3l.25,1.623h5.868c.25,0,.624.125.624.874v2.871h-1.623l.25,1.623h3.121V30.484c0-1.5-.749-2.247-2.122-2.247h-4.245v-.5h6.492V26.115h-6.492A3.457,3.457,0,0,1,164.3,24.991Zm0-1.124v-.874h4.245v.874Zm0-2.622v-1h3.371c.749,0,.749.375.749.624v.375Z" transform="translate(-89.018 -17.875)" fill="#e5e5e5"/>
        <path id="パス_34" data-name="パス 34" d="M164.7,27.8h-1l.125,5.119H165.2l-.25-5.119Z" transform="translate(-88.67 -15.441)" fill="#e5e5e5"/>
        <path id="パス_35" data-name="パス 35" d="M166.024,27.8H164.9l.375,5.119h1.373l-.5-5.119Z" transform="translate(-88.372 -15.441)" fill="#e5e5e5"/>
        <path id="パス_36" data-name="パス 36" d="M166.7,30.8h1.124l-.375-3H166.2l.375,3Z" transform="translate(-88.049 -15.441)" fill="#e5e5e5"/>
        <path id="パス_37" data-name="パス 37" d="M195.957,32.382c0,.5-.25.749-.624.749h-4.369V17.9h-2V33.131h-4.994V18.649h-2V33.131H181.6l.375,2h13.857c1.373,0,2.122-.749,2.122-2.247V18.774h-2V32.382Z" transform="translate(-84.223 -17.9)" fill="#e5e5e5"/>
        <path id="パス_38" data-name="パス 38" d="M208.8,23.05v.125c-.375,1.5-.874,3.246-1.5,5.119a27.17,27.17,0,0,1-1.873,4.494l-.125.25h2.247v-.125a29.156,29.156,0,0,0,1.873-4.619q.936-2.809,1.5-5.243V22.8H208.8Z" transform="translate(-78.335 -16.683)" fill="#e5e5e5"/>
        <path id="パス_39" data-name="パス 39" d="M220.806,21.347h-6.367V18.6h-2.122v2.747H205.7l.125,2h6.367v11.61h2.122V23.344h6.367v-2Z" transform="translate(-78.236 -17.726)" fill="#e5e5e5"/>
        <path id="パス_40" data-name="パス 40" d="M217.5,28.094,216,23.1h-2v.25c1.124,4.494,2.122,7.74,3.246,9.738v.125h2.122l-.125-.25C218.869,31.714,218.245,30.091,217.5,28.094Z" transform="translate(-76.174 -16.608)" fill="#e5e5e5"/>
        <path id="パス_41" data-name="パス 41" d="M228.8,22.8l.25,2h7.491a9.587,9.587,0,0,1-1,4.744,4.844,4.844,0,0,1-3.995,2.247h-.125v2.122h.25q4.12-.562,5.618-3a11.369,11.369,0,0,0,1.373-6.117h6.617v-2H228.8Z" transform="translate(-72.497 -16.683)" fill="#e5e5e5"/>
        <path id="パス_42" data-name="パス 42" d="M242.585,21.1v-2H230.6l.125,2Z" transform="translate(-72.05 -17.602)" fill="#e5e5e5"/>
        <path id="パス_43" data-name="パス 43" d="M257.643,19.5h-2v1.248a28.917,28.917,0,0,1-.749,7.116,30.053,30.053,0,0,1-2.372,6.242l-.125.25h2.372v-.125a27.349,27.349,0,0,0,3-12.734V19.625h-.125Z" transform="translate(-66.635 -17.503)" fill="#e5e5e5"/>
        <path id="パス_44" data-name="パス 44" d="M264.292,30.785l-2.372,1.248-.749.125c-.5,0-.749-.25-.749-.874V19.3H258.3V31.659a2.328,2.328,0,0,0,.874,2,2.983,2.983,0,0,0,1.748.624,4.194,4.194,0,0,0,1.873-.5,36.364,36.364,0,0,0,3.995-2.247h.125v-2.5Z" transform="translate(-65.169 -17.552)" fill="#e5e5e5"/>
      </g>
    </g>
  </g>
</svg>
