<svg xmlns="http://www.w3.org/2000/svg" width="30" height="30" viewBox="0 0 30 30">
  <path id="合体_6" data-name="合体 6" d="M2.479,30A2.46,2.46,0,0,1,0,27.565V5.174A2.461,2.461,0,0,1,2.479,2.739H5.3V1.723A1.741,1.741,0,0,1,7.053,0H8.822a1.74,1.74,0,0,1,1.754,1.723V2.739h8.849V1.723A1.74,1.74,0,0,1,21.179,0h1.769A1.741,1.741,0,0,1,24.7,1.723V2.739H27.52A2.461,2.461,0,0,1,30,5.174V27.565A2.46,2.46,0,0,1,27.52,30ZM1.454,27.565a1.017,1.017,0,0,0,1.025,1.006H27.52a1.017,1.017,0,0,0,1.025-1.006V10.551H1.454Zm0-22.391V9.123H28.545V5.174A1.017,1.017,0,0,0,27.52,4.167H24.7V5.181A1.741,1.741,0,0,1,22.948,6.9H21.179a1.74,1.74,0,0,1-1.754-1.723V4.167H10.576V5.181A1.74,1.74,0,0,1,8.822,6.9H7.053A1.742,1.742,0,0,1,5.3,5.181V4.167H2.479A1.017,1.017,0,0,0,1.454,5.174ZM20.879,1.723V5.181a.3.3,0,0,0,.3.295h1.769a.3.3,0,0,0,.3-.295V3.458s0,0,0-.005,0,0,0-.005V1.723a.3.3,0,0,0-.3-.294H21.179A.3.3,0,0,0,20.879,1.723Zm-14.127,0V5.181a.3.3,0,0,0,.3.295H8.822a.3.3,0,0,0,.3-.295V1.723a.3.3,0,0,0-.3-.294H7.053A.3.3,0,0,0,6.752,1.723ZM21.575,23.572a2.6,2.6,0,1,1,2.6,2.555A2.581,2.581,0,0,1,21.575,23.572Zm1.454,0a1.146,1.146,0,1,0,1.146-1.125A1.138,1.138,0,0,0,23.03,23.572Zm-10.444,0a2.6,2.6,0,1,1,2.6,2.555A2.58,2.58,0,0,1,12.585,23.572Zm1.455,0a1.146,1.146,0,1,0,1.146-1.125A1.138,1.138,0,0,0,14.04,23.572Zm-10.445,0a2.6,2.6,0,1,1,2.6,2.555A2.58,2.58,0,0,1,3.6,23.572Zm1.454,0A1.146,1.146,0,1,0,6.2,22.447,1.138,1.138,0,0,0,5.05,23.572Zm16.526-8.021a2.6,2.6,0,1,1,2.6,2.554A2.58,2.58,0,0,1,21.575,15.551Zm1.454,0a1.146,1.146,0,1,0,1.146-1.126A1.137,1.137,0,0,0,23.03,15.551Zm-10.444,0a2.6,2.6,0,1,1,2.6,2.554A2.579,2.579,0,0,1,12.585,15.551Zm1.455,0a1.146,1.146,0,1,0,1.146-1.126A1.137,1.137,0,0,0,14.04,15.551Zm-10.445,0A2.6,2.6,0,1,1,6.2,18.1,2.579,2.579,0,0,1,3.6,15.551Zm1.454,0A1.146,1.146,0,1,0,6.2,14.424,1.137,1.137,0,0,0,5.05,15.551Z" fill="#07182b"/>
</svg>
