<svg xmlns="http://www.w3.org/2000/svg" width="35.558" height="30.29" viewBox="0 0 35.558 30.29">
  <path id="合体_13" data-name="合体 13" d="M-10768.829-2582.211a1.173,1.173,0,0,1-1.172-1.171v-27.447a1.173,1.173,0,0,1,1.173-1.171h22.417a1.173,1.173,0,0,1,1.172,1.171v8.457a.555.555,0,0,1-.556.555.555.555,0,0,1-.556-.555v-8.457a.06.06,0,0,0-.061-.06h-22.417a.06.06,0,0,0-.062.06v27.447a.061.061,0,0,0,.061.06h22.418a.061.061,0,0,0,.061-.06v-3.818a.555.555,0,0,1,.556-.556.556.556,0,0,1,.556.556v3.818a1.173,1.173,0,0,1-1.172,1.171Zm4.165-6.967a.555.555,0,0,1-.556-.556.555.555,0,0,1,.556-.556h11.333a.556.556,0,0,1,.556.556.556.556,0,0,1-.556.556Zm18.883,0-4.427-.018a.576.576,0,0,1-.574-.576l-.019-4.425a.82.82,0,0,1,.238-.577l10.008-10.008a.669.669,0,0,1,.946,0l4.413,4.412a.671.671,0,0,1,0,.945l-10.009,10.009a.815.815,0,0,1-.574.238Zm-3.907-4.9.016,3.771,3.771.015,6.812-6.812-3.787-3.787Zm7.6-7.6,3.788,3.787,2.01-2.01-3.787-3.787Zm-22.572,5.128a.556.556,0,0,1-.556-.556.556.556,0,0,1,.556-.556h12.792a.556.556,0,0,1,.556.556.556.556,0,0,1-.556.556Zm0-7.372a.555.555,0,0,1-.556-.556.555.555,0,0,1,.556-.555h14.434a.556.556,0,0,1,.556.555.556.556,0,0,1-.556.556Z" transform="translate(10770.251 2612.251)" fill="#07182b" stroke="#07182b" stroke-miterlimit="10" stroke-width="0.5"/>
</svg>
